<svg xmlns="http://www.w3.org/2000/svg" width="41.032" height="44.032" viewBox="0 0 41.032 44.032">
  <path id="Shape_226" data-name="Shape 226" d="M1031.623,5964.017a3.6,3.6,0,0,1-3.586-3.613v-12.055a3.928,3.928,0,0,0,2.443.864h.57V5960.4a.575.575,0,0,0,.573.576h33.767a.576.576,0,0,0,.573-.576v-11.191h.57a3.921,3.921,0,0,0,2.441-.864V5960.4a3.6,3.6,0,0,1-3.585,3.613Zm27.6-5.242a.7.7,0,0,1-.694-.7v-3.914a.7.7,0,0,1,.694-.7h3.881a.7.7,0,0,1,.695.7v3.914a.7.7,0,0,1-.695.7Zm-25.316,0a.7.7,0,0,1-.693-.7v-3.914a.7.7,0,0,1,.693-.7h3.883a.7.7,0,0,1,.694.7v3.914a.7.7,0,0,1-.694.7Zm6.87-.049a.7.7,0,0,1-.693-.7v-3.82a.7.7,0,0,1,.693-.7h15.457a.7.7,0,0,1,.694.7v3.82a.7.7,0,0,1-.694.7Zm18.446-6.025a.7.7,0,0,1-.694-.7v-2.789h5.27V5952a.7.7,0,0,1-.695.7Zm-6.33,0a.7.7,0,0,1-.694-.7v-2.789h5.272V5952a.7.7,0,0,1-.695.7Zm-6.328,0a.7.7,0,0,1-.694-.7v-2.789h5.27V5952a.7.7,0,0,1-.693.7Zm-6.33,0a.7.7,0,0,1-.693-.7v-2.789h5.27V5952a.7.7,0,0,1-.695.7Zm-6.328,0a.7.7,0,0,1-.693-.7v-2.789h5.27V5952a.7.7,0,0,1-.694.7Zm-3.428-5.006a2.5,2.5,0,0,1-2.489-2.51v-22.691a2.5,2.5,0,0,1,2.489-2.509h36.054a2.5,2.5,0,0,1,2.489,2.509v22.691a2.5,2.5,0,0,1-2.489,2.51Zm.593-8.03v4.387a.7.7,0,0,0,.694.7h1.717a.7.7,0,0,0,.694-.7v-4.387a.7.7,0,0,0-.694-.7h-1.717A.7.7,0,0,0,1031.072,5939.665Zm5.858,4.993h26.351v-21.636H1036.93Zm28.422-14.8v7.972a.755.755,0,0,0,.753.759.784.784,0,0,0,.751-.759v-7.972a.749.749,0,0,0-.281-.579.735.735,0,0,0-.47-.18A.754.754,0,0,0,1065.352,5929.854Zm-35.01,3.434a2.387,2.387,0,0,0-.07.551,2.423,2.423,0,0,0,.07.554,2.374,2.374,0,1,0,0-1.1Zm.729-9.66v4.387a.7.7,0,0,0,.694.7h1.717a.7.7,0,0,0,.694-.7v-4.387a.7.7,0,0,0-.694-.7h-1.717A.7.7,0,0,0,1031.072,5923.628Z" transform="translate(-1027.99 -5919.985)" fill="#0b9fca"/>
</svg>
