<svg xmlns="http://www.w3.org/2000/svg" width="43.006" height="43.006" viewBox="0 0 43.006 43.006">
  <path id="Shape_222" data-name="Shape 222" d="M1057.272,5610.128a5.873,5.873,0,0,1,3.91-5.527v-4.247h-27.367v4.247a5.865,5.865,0,1,1-3.91,0v-12.065h-1.955a1.956,1.956,0,0,1-1.955-1.955v-7.819a1.955,1.955,0,0,1,1.955-1.955h9.774v11.729h-3.91v3.91h27.367v-3.91h-3.91v-11.729h9.774a1.955,1.955,0,0,1,1.955,1.955v7.819a1.956,1.956,0,0,1-1.955,1.955h-1.955V5604.6a5.864,5.864,0,1,1-7.82,5.527Zm3.91,0a1.955,1.955,0,1,0,1.955-1.955A1.957,1.957,0,0,0,1061.182,5610.128Zm-31.277,0a1.955,1.955,0,1,0,1.955-1.955A1.957,1.957,0,0,0,1029.9,5610.128Zm11.725-17.588V5580.81h11.731v11.731Zm11.732-11.734v-3.91h-11.728v3.91h-3.91v-5.864a1.955,1.955,0,0,1,1.955-1.955h15.638a1.955,1.955,0,0,1,1.955,1.955v5.864Z" transform="translate(-1025.995 -5572.987)" fill="#0b9fca"/>
</svg>
