<svg xmlns="http://www.w3.org/2000/svg" width="45.962" height="48.03" viewBox="0 0 45.962 48.03">
  <path id="Shape_223" data-name="Shape 223" d="M397.917,5792.016v-9.542a1.931,1.931,0,0,0-1.942-1.919H390.02a1.93,1.93,0,0,0-1.941,1.919v9.542h-12a1.652,1.652,0,0,1-1.66-1.641V5776.52h-2.743a1.652,1.652,0,0,1-1.66-1.641v-.5a1.65,1.65,0,0,1,1.66-1.641h2.743v-15.051h-2.743a1.651,1.651,0,0,1-1.66-1.64v-.5a1.649,1.649,0,0,1,1.66-1.64H385.49v-7.79a2.148,2.148,0,0,1,2.16-2.138h10.787a2.058,2.058,0,0,1,2.07,2.045v7.88h13.808a1.649,1.649,0,0,1,1.659,1.641v.5a1.651,1.651,0,0,1-1.659,1.643h-2.675v15.051h2.678a1.649,1.649,0,0,1,1.66,1.641v.5a1.651,1.651,0,0,1-1.66,1.641h-2.678v13.855a1.65,1.65,0,0,1-1.659,1.641Zm5.243-10.383v2.579a1.084,1.084,0,0,0,1.09,1.082h3a1.087,1.087,0,0,0,1.095-1.082v-2.579a1.087,1.087,0,0,0-1.095-1.08h-3A1.084,1.084,0,0,0,403.16,5781.633Zm-24.338,0v2.579a1.084,1.084,0,0,0,1.09,1.082h2.994a1.086,1.086,0,0,0,1.092-1.082v-2.579a1.084,1.084,0,0,0-1.092-1.08h-2.994A1.084,1.084,0,0,0,378.823,5781.633Zm24.339-13.241v2.423a1.161,1.161,0,0,0,1.169,1.156h2.84a1.164,1.164,0,0,0,1.17-1.156v-2.423a1.163,1.163,0,0,0-1.17-1.157h-2.84A1.162,1.162,0,0,0,403.162,5768.392Zm-24.338,0v2.423a1.161,1.161,0,0,0,1.169,1.156h19.345a1.165,1.165,0,0,0,1.17-1.156v-2.423a1.162,1.162,0,0,0-1.17-1.157H379.993A1.162,1.162,0,0,0,378.824,5768.392Zm24.338-7.624v2.425a1.163,1.163,0,0,0,1.169,1.158h2.842a1.167,1.167,0,0,0,1.17-1.158v-2.425a1.165,1.165,0,0,0-1.172-1.157h-2.84A1.161,1.161,0,0,0,403.162,5760.768Zm-8.479,0v2.425a1.164,1.164,0,0,0,1.169,1.158h3.486a1.167,1.167,0,0,0,1.17-1.158v-2.425a1.164,1.164,0,0,0-1.172-1.157h-3.484A1.162,1.162,0,0,0,394.683,5760.768Zm-15.859,0v2.425a1.163,1.163,0,0,0,1.169,1.158h10.735a1.164,1.164,0,0,0,1.169-1.158v-2.425a1.162,1.162,0,0,0-1.169-1.157H379.993A1.161,1.161,0,0,0,378.824,5760.768Zm8.35-12.975v6.121h11.715v-6.121a2.151,2.151,0,0,0-2.161-2.141h-7.392A2.15,2.15,0,0,0,387.173,5747.793Zm6.987,5.095v-2.625h-2.329v2.625h-1.425v-6.21h1.425v2.37h2.329v-2.37h1.426v6.21Z" transform="translate(-370.017 -5743.986)" fill="#0b9fca"/>
</svg>
