<svg xmlns="http://www.w3.org/2000/svg" width="41.984" height="42.01" viewBox="0 0 41.984 42.01">
  <path id="Shape_224" data-name="Shape 224" d="M1028.8,5789a1.794,1.794,0,0,1-1.783-1.787V5752a1.794,1.794,0,0,1,1.783-1.787h6.25v-1.436a1.794,1.794,0,0,1,1.783-1.787h12.044a1.8,1.8,0,0,1,1.783,1.787v1.436h6.241a1.8,1.8,0,0,1,1.783,1.787v14.389l8.915,8.935c2.136,2.148,1.784,5.9-.719,8.4-1.424,1.34-5.024,3.548-8.2.885v2.6a1.794,1.794,0,0,1-1.783,1.787Zm1.7-3.487v.007h24.611v-4.467l-7.671-7.688a1.239,1.239,0,0,1-.446-.894l-1.518-8.222a1.636,1.636,0,0,1,1.964-1.967l7.671,1.418v-9.914h-4.457v1.512a1.908,1.908,0,0,1-1.783,1.7H1036.83a1.794,1.794,0,0,1-1.783-1.787v-1.425h-4.553Zm19.8-14.21,10.6,10.635c1.261.894,2.769-.086,3.481-.713,1.251-1.252,1.337-2.775.719-3.4l-10.7-10.722-5.083-.978Zm-11.684-17.785h8.47v-3.041h-8.47Zm-3.035,12.957v-.98h-1.071a1.786,1.786,0,0,1,0-3.573h1.071v-.979a1.783,1.783,0,1,1,3.567,0v.979h.891a1.784,1.784,0,0,1,1.784,1.786,1.724,1.724,0,0,1-1.7,1.787h-.978v.98a1.843,1.843,0,0,1-1.783,1.786A1.8,1.8,0,0,1,1035.578,5766.479Z" transform="translate(-1027.015 -5746.994)" fill="#0b9fca"/>
</svg>
