<svg xmlns="http://www.w3.org/2000/svg" width="15.774" height="13.176" viewBox="0 0 15.774 13.176">
  <path id="Shape_244" data-name="Shape 244" d="M993.807,293.367a7.133,7.133,0,0,0-2.87-2,11.064,11.064,0,0,0-7.922,0,7.134,7.134,0,0,0-2.87,2,4.216,4.216,0,0,0-1.056,2.758,4.088,4.088,0,0,0,.8,2.411,6.409,6.409,0,0,0,2.178,1.887,5.375,5.375,0,0,1-.229.652q-.132.309-.238.506a3.54,3.54,0,0,1-.286.437q-.181.24-.273.34l-.3.326c-.141.151-.232.25-.273.3a.694.694,0,0,0-.07.078l-.062.072-.053.077c-.029.043-.042.07-.04.082a.218.218,0,0,1-.017.085.112.112,0,0,0,0,.1v.008a.438.438,0,0,0,.141.236.359.359,0,0,0,.238.09h.044a6.871,6.871,0,0,0,1-.189,9.706,9.706,0,0,0,4.049-2.076,12.391,12.391,0,0,0,1.276.069,10.46,10.46,0,0,0,3.961-.734,7.132,7.132,0,0,0,2.87-2,4.129,4.129,0,0,0,0-5.516Zm-.991,4.945a6.322,6.322,0,0,1-2.482,1.609,9.34,9.34,0,0,1-3.358.6,10.133,10.133,0,0,1-1.144-.069l-.5-.051-.378.326a8.7,8.7,0,0,1-2.421,1.466,6.073,6.073,0,0,0,.616-1.475l.238-.823-.766-.429a5.326,5.326,0,0,1-1.773-1.506,3.079,3.079,0,0,1-.629-1.831,3.2,3.2,0,0,1,.92-2.188,6.34,6.34,0,0,1,2.482-1.608,9.75,9.75,0,0,1,6.716,0,6.334,6.334,0,0,1,2.482,1.608,3.061,3.061,0,0,1,0,4.375Z" transform="translate(-979.089 -290.635)" fill="#333"/>
</svg>
