<svg xmlns="http://www.w3.org/2000/svg" width="12.329" height="10.568" viewBox="0 0 12.329 10.568">
  <path id="Shape_244_copy_4" data-name="Shape 244 copy 4" d="M141.167,2267.7a5.576,5.576,0,0,0-2.243-1.6,8.443,8.443,0,0,0-6.192,0,5.577,5.577,0,0,0-2.243,1.6,3.431,3.431,0,0,0-.826,2.212,3.338,3.338,0,0,0,.623,1.934,5.046,5.046,0,0,0,1.7,1.513,4.336,4.336,0,0,1-.179.523q-.1.248-.186.406a2.822,2.822,0,0,1-.224.351q-.141.193-.213.272l-.237.261c-.11.121-.181.2-.213.237a.5.5,0,0,0-.055.063l-.048.058-.041.062c-.023.034-.033.056-.031.065a.178.178,0,0,1-.014.068.092.092,0,0,0,0,.083v.007a.349.349,0,0,0,.11.189.275.275,0,0,0,.186.072h.035a5.238,5.238,0,0,0,.784-.151,7.522,7.522,0,0,0,3.165-1.665,9.493,9.493,0,0,0,1,.055,7.992,7.992,0,0,0,3.1-.588,5.583,5.583,0,0,0,2.243-1.6,3.376,3.376,0,0,0,0-4.424Zm-.774,3.967a4.936,4.936,0,0,1-1.94,1.29,7.134,7.134,0,0,1-2.625.478,7.861,7.861,0,0,1-.894-.055l-.392-.041-.3.261a6.776,6.776,0,0,1-1.892,1.176,4.933,4.933,0,0,0,.482-1.183l.186-.66-.6-.344a4.208,4.208,0,0,1-1.386-1.208,2.512,2.512,0,0,1-.492-1.469,2.6,2.6,0,0,1,.719-1.755,4.945,4.945,0,0,1,1.94-1.29,7.435,7.435,0,0,1,5.25,0,4.938,4.938,0,0,1,1.94,1.29,2.5,2.5,0,0,1,0,3.509Z" transform="translate(-129.663 -2265.51)" fill="#333"/>
</svg>
