<svg xmlns="http://www.w3.org/2000/svg" width="18.994" height="15.977" viewBox="0 0 18.994 15.977">
  <path id="Shape_245_copy" data-name="Shape 245 copy" d="M1100.451,2183.5a5.428,5.428,0,0,0-7.437,0l-.52.5-.527-.5a5.425,5.425,0,0,0-7.437-.008,4.876,4.876,0,0,0,.008,7.116l7.562,7.236a.558.558,0,0,0,.765,0l7.578-7.224a4.889,4.889,0,0,0,.008-7.121Zm-.773,6.384-7.2,6.858-7.18-6.87a3.87,3.87,0,0,1,0-5.644,4.3,4.3,0,0,1,5.9,0l.91.87a.558.558,0,0,0,.769,0l.9-.863a4.305,4.305,0,0,1,5.9,0,3.88,3.88,0,0,1,0,5.648Z" transform="translate(-1082.991 -2182.017)" fill="#333"/>
</svg>
