<svg xmlns="http://www.w3.org/2000/svg" width="12.527" height="11.013" viewBox="0 0 12.527 11.013">
  <path id="Shape_245_copy_4" data-name="Shape 245 copy 4" d="M177.743,2267.037a3.468,3.468,0,0,0-4.905,0l-.343.343-.348-.348a3.465,3.465,0,1,0-4.9,4.9l4.988,4.987a.356.356,0,0,0,.5,0l5-4.979a3.475,3.475,0,0,0,.005-4.908Zm-.51,4.4-4.746,4.727-4.735-4.735a2.749,2.749,0,1,1,3.888-3.887l.6.6a.358.358,0,0,0,.507,0l.595-.595a2.751,2.751,0,0,1,3.891,3.891Z" transform="translate(-166.228 -2266.014)" fill="#333"/>
</svg>
