<svg xmlns="http://www.w3.org/2000/svg" width="218" height="53.001" viewBox="0 0 218 53.001">
  <g id="Vector_Smart_Object" data-name="Vector Smart Object" transform="translate(-1662 -31)">
    <g id="Vector_Smart_Object-2" data-name="Vector Smart Object" transform="translate(1626.188 -33.319)">
      <g id="Group_4" data-name="Group 4">
        <g id="Group_3" data-name="Group 3">
          <path id="Path_1" data-name="Path 1" d="M246.537,64.319a2.09,2.09,0,0,1,1.585.959c1.341.029,2.682,0,4.023.013a1.742,1.742,0,0,1,1.668,1.62v36.115a1.753,1.753,0,0,1-1.662,1.591c-3.083.016-6.172,0-9.255.01a21.778,21.778,0,0,1-2.893,0c-3.2-.013-6.39,0-9.582-.01a1.682,1.682,0,0,1-1.665-1.661V66.985a1.685,1.685,0,0,1,1.668-1.7c1.3-.007,2.586,0,3.882,0a2.177,2.177,0,0,1,1.552-.966h.991a1,1,0,0,1,.844.882c.013.747.01,1.5,0,2.248a.954.954,0,0,1-.914.917,3.26,3.26,0,0,1-1.549-.186,2.312,2.312,0,0,1-.824-.67c-.808-.006-1.617-.019-2.428,0a1.237,1.237,0,0,0-1.12,1.257q-.01,13.97,0,27.946a1.256,1.256,0,0,0,1.235,1.344c6.05.013,12.106,0,18.156,0a1.273,1.273,0,0,0,1.348-1.334q.009-13.581,0-27.173a4.908,4.908,0,0,0-.061-1.19,1.24,1.24,0,0,0-1.174-.86c-.77-.01-1.54,0-2.307,0a2.564,2.564,0,0,1-2.675.8.946.946,0,0,1-.629-.872c-.007-.738-.01-1.485,0-2.229a1,1,0,0,1,.831-.889h.956m-2.8,36.269a1.428,1.428,0,0,0-.725-.109c-1.3.006-2.6-.01-3.907,0a.974.974,0,0,0-.924,1.026.991.991,0,0,0,1.039.9q2.007,0,4.013-.007a.962.962,0,0,0,.5-1.815" fill="#0a9ec9"/>
          <path id="Path_2" data-name="Path 2" d="M224.877,67.312a5.731,5.731,0,0,1-3.48,9.464c0,1.042,0,2.085,0,3.133H219.18c0-1.074,0-2.155-.007-3.233a5.852,5.852,0,0,1-3.464-2.533,5.786,5.786,0,0,1-.359-5.427,5.867,5.867,0,0,1,5.723-3.364,6,6,0,0,1,3.8,1.96m-3.907.119A3.692,3.692,0,1,0,224.1,70a3.729,3.729,0,0,0-3.131-2.572" fill="#0a9ec9"/>
          <path id="Path_3" data-name="Path 3" d="M221.39,98.946h-2.217v16.029a2.908,2.908,0,0,0,.167,1.389,1.853,1.853,0,0,0,1.241.956h20.357a1.827,1.827,0,0,0,1.61-1.783c.013-3.646-.01-7.3.013-10.949-.763.013-1.527-.039-2.29.013.048.526.029,1.055.032,1.581q0,3.786,0,7.575a1.272,1.272,0,0,1-.59,1.148,2.575,2.575,0,0,1-1.376.2q-7.516,0-15.042,0a2.343,2.343,0,0,1-1.35-.218,1.274,1.274,0,0,1-.555-1.129V98.946" fill="#0a9ec9"/>
          <path id="Path_4" data-name="Path 4" d="M221.079,67.982a3.176,3.176,0,0,0-3.667,3.239,3.164,3.164,0,1,0,3.667-3.239" fill="#828285"/>
          <path id="Path_5" data-name="Path 5" d="M222.741,79.909h-4.9v19.15h4.9Z" fill="#828285"/>
          <g id="Group_1" data-name="Group 1">
            <path id="Path_6" data-name="Path 6" d="M63.743,92.193H42.189c-3.819,0-6.376-2.662-6.376-6.585V77.972h4.169v7.776c0,1.541.876,2.277,2.593,2.277H59.531V69.566h4.212Zm-12.06-17.3V76.5h-1.4c-.666,0-1.016.42-1.016,1.156,0,.666.35.981,1.086.981h2v1.611h-5.43V78.638h.946a2.9,2.9,0,0,1-.245-.946,2.733,2.733,0,0,1,2.838-2.8Z" fill="#3bb44a"/>
            <path id="Path_7" data-name="Path 7" d="M65.685,88.025H78.1v4.168H65.685Z" fill="#828285"/>
            <path id="Path_8" data-name="Path 8" d="M77.539,88.025h8.794v-11.7H90.5v11.7h.21v4.168H77.539Z" fill="#828285"/>
            <path id="Path_9" data-name="Path 9" d="M90.151,88.025H104.9v4.168H90.151Z" fill="#828285"/>
            <path id="Path_10" data-name="Path 10" d="M104.34,88.025h5.15v-11.7h4.169v11.7h.21v4.168H104.34Z" fill="#828285"/>
            <path id="Path_11" data-name="Path 11" d="M113.309,88.025h14.749v4.168H113.309Z" fill="#828285"/>
            <path id="Path_12" data-name="Path 12" d="M127.5,88.025h8.794v-11.7h4.169v11.7h.21v4.168H127.5Z" fill="#828285"/>
            <path id="Path_13" data-name="Path 13" d="M140.11,88.025h14.749v4.168H140.11Z" fill="#828285"/>
            <path id="Path_14" data-name="Path 14" d="M154.3,88.025h5.15V69.566h4.169V88.025h.21v4.168H154.3Z" fill="#828285"/>
            <path id="Path_15" data-name="Path 15" d="M168.663,83.717V76.5l9.109-6.83h6.9L172.9,78.533v.981h6.622a6.211,6.211,0,0,1,6.586,6.34v2.172h.21v4.168h-22.7V88.025h18.288V86.273c0-1.716-.771-2.557-2.312-2.557Z" fill="#828285"/>
            <path id="Path_16" data-name="Path 16" d="M185.76,88.025h14.75v4.168H185.76Z" fill="#828285"/>
            <path id="Path_17" data-name="Path 17" d="M199.949,88.025h8.794v-11.7h4.169V92.193H199.949Z" fill="#828285"/>
          </g>
          <g id="Group_2" data-name="Group 2">
            <path id="Path_18" data-name="Path 18" d="M44.2,112.461H42.686a2.334,2.334,0,0,1-2.26-1.847,1.918,1.918,0,0,1-1.6.936c-1.6,0-2.584-1.2-2.584-2.933,0-1.872.986-3.033,2.584-3.033h3.084v3.957c0,.974.462,1.5,1.4,1.5H44.2Zm-3.733-3.982v-1.81H39.2c-.974,0-1.573.774-1.573,1.935,0,.961.537,1.785,1.373,1.785C39.914,110.389,40.464,109.54,40.464,108.479Zm-1.024-3.907H38.067v-1.4H39.44Zm2.36,0H40.426v-1.4H41.8Z" fill="#828285"/>
            <path id="Path_19" data-name="Path 19" d="M46.606,112.461H43.847v-1.423h2.759Z" fill="#828285"/>
            <path id="Path_20" data-name="Path 20" d="M49.078,112.461H46.319v-1.423h2.759Z" fill="#828285"/>
            <path id="Path_21" data-name="Path 21" d="M50.064,115.194H48.691v-1.4h1.373Zm4.445-2.733H48.753v-1.423h1.336a.868.868,0,0,0,.849-.424,2.188,2.188,0,0,0,.15-.949v-2.871h1.386v2.8a2.285,2.285,0,0,1-.312,1.448h2.347Zm-2.085,2.733H51.05v-1.4h1.373Z" fill="#828285"/>
            <path id="Path_22" data-name="Path 22" d="M56.943,112.461H54.184v-1.423h2.759Z" fill="#828285"/>
            <path id="Path_23" data-name="Path 23" d="M59.415,112.461H56.656v-1.423h2.759Z" fill="#828285"/>
            <path id="Path_24" data-name="Path 24" d="M67.28,112.461H65.495a2.645,2.645,0,0,1-2.26,1.086A2.616,2.616,0,0,1,61,112.461H59.09v-1.423h1.348c-.012-.137-.012-.275-.012-.412a2.867,2.867,0,0,1,.774-2.06,2.719,2.719,0,0,1,2.035-.811,2.6,2.6,0,0,1,2.022.836,2.97,2.97,0,0,1,.774,2.085v.362H67.28Zm-2.684-1.8a1.909,1.909,0,0,0-.337-1.136,1.29,1.29,0,0,0-1.061-.512,1.189,1.189,0,0,0-1.011.5,1.819,1.819,0,0,0-.325,1.1,1.485,1.485,0,0,0,1.411,1.635,1.192,1.192,0,0,0,1-.474A1.832,1.832,0,0,0,64.6,110.663Z" fill="#828285"/>
            <path id="Path_25" data-name="Path 25" d="M69.639,112.461H66.88v-1.423h2.759Z" fill="#828285"/>
            <path id="Path_26" data-name="Path 26" d="M72.111,112.461H69.352v-1.423h2.759Z" fill="#828285"/>
            <path id="Path_27" data-name="Path 27" d="M79.09,109.59a2.721,2.721,0,0,1-2.8,2.871H71.849v-1.423h1.985a3.148,3.148,0,0,1-.362-1.485,2.73,2.73,0,0,1,2.822-2.883A2.776,2.776,0,0,1,79.09,109.59Zm-3.308-3.982H74.421v-1.385h1.361Zm1.873,3.982a1.484,1.484,0,0,0-1.411-1.648c-.8,0-1.336.624-1.336,1.6a1.5,1.5,0,0,0,1.411,1.635A1.4,1.4,0,0,0,77.654,109.59Zm.5-3.982H76.793v-1.385h1.361Z" fill="#828285"/>
            <path id="Path_28" data-name="Path 28" d="M85.295,112.461H83.06c-.212,1.335-1.348,2.072-3.046,2.072v-1.2a1.542,1.542,0,0,0,1.735-1.772v-4.768h1.4v4.244h2.147Z" fill="#828285"/>
            <path id="Path_29" data-name="Path 29" d="M87.592,112.461H84.833v-1.423h2.759Z" fill="#828285"/>
            <path id="Path_30" data-name="Path 30" d="M90.064,112.461H87.3v-1.423h2.759Z" fill="#828285"/>
            <path id="Path_31" data-name="Path 31" d="M93.31,110.2c0,1.51-.7,2.259-2.1,2.259H89.739v-1.423h1.186a.885.885,0,0,0,.886-.412,2.718,2.718,0,0,0,.1-.9V104.41h1.4Z" fill="#828285"/>
            <path id="Path_32" data-name="Path 32" d="M95.981,112.461H94.6V104.4h1.386Z" fill="#828285"/>
            <path id="Path_33" data-name="Path 33" d="M107.729,112.461h-1.511a2.334,2.334,0,0,1-2.26-1.847,1.919,1.919,0,0,1-1.6.936c-1.6,0-2.584-1.2-2.584-2.933,0-1.872.986-3.033,2.584-3.033h3.084v3.957c0,.974.462,1.5,1.4,1.5h.886ZM104,108.479v-1.81h-1.261c-.974,0-1.573.774-1.573,1.935,0,.961.537,1.785,1.373,1.785C103.447,110.389,104,109.54,104,108.479Zm-1.024-3.907H101.6v-1.4h1.373Zm2.36,0h-1.373v-1.4h1.373Z" fill="#828285"/>
            <path id="Path_34" data-name="Path 34" d="M110.138,112.461h-2.759v-1.423h2.759Z" fill="#828285"/>
            <path id="Path_35" data-name="Path 35" d="M112.61,112.461h-2.759v-1.423h2.759Z" fill="#828285"/>
            <path id="Path_36" data-name="Path 36" d="M122.336,112.461H112.311v-1.423h7.216a3.085,3.085,0,0,0-.649-1.985,2.607,2.607,0,0,0-2.147-.949,2.731,2.731,0,0,0-1.049.237,3.041,3.041,0,0,0-1.124.786c-.137-.262-.362-.624-.674-1.1a4.7,4.7,0,0,1,1.336-.886,4.119,4.119,0,0,1,1.648-.349,3.989,3.989,0,0,1,4.145,4.244h1.323Z" fill="#828285"/>
            <path id="Path_37" data-name="Path 37" d="M124.745,112.461h-2.759v-1.423h2.759Z" fill="#828285"/>
            <path id="Path_38" data-name="Path 38" d="M127.217,112.461h-2.759v-1.423h2.759Z" fill="#828285"/>
            <path id="Path_39" data-name="Path 39" d="M138.965,112.461H126.58v-1.423h1.4c.712,0,1.061-.487,1.061-1.473v-2.172h1.4v1.735a5.01,5.01,0,0,1,3.833-2.359c2.11,0,3.184,1.435,3.221,4.269h1.473Zm-2.921-1.423.025-.4c0-1.61-.749-2.621-1.935-2.621-1.4,0-2.884,1.3-3.658,3.021Z" fill="#828285"/>
            <path id="Path_40" data-name="Path 40" d="M141.412,112.461h-2.759v-1.423h2.759Z" fill="#828285"/>
            <path id="Path_41" data-name="Path 41" d="M143.884,112.461h-2.759v-1.423h2.759Z" fill="#828285"/>
            <path id="Path_42" data-name="Path 42" d="M147.13,110.2c0,1.51-.7,2.259-2.1,2.259h-1.473v-1.423h1.186a.885.885,0,0,0,.886-.412,2.716,2.716,0,0,0,.1-.9V104.41h1.4Z" fill="#828285"/>
            <path id="Path_43" data-name="Path 43" d="M149.8,112.461h-1.386V104.4H149.8Z" fill="#828285"/>
            <path id="Path_44" data-name="Path 44" d="M159.352,112.286c0,1.485-.9,2.234-2.709,2.234v-1.111c.874-.025,1.311-.612,1.336-1.585a1.389,1.389,0,0,1-1.323.636,2.843,2.843,0,1,1,2.7-2.808Zm-1.436-2.609c0-.974-.524-1.623-1.323-1.623-.737,0-1.224.711-1.224,1.56a1.426,1.426,0,0,0,1.286,1.585A1.386,1.386,0,0,0,157.916,109.677Z" fill="#828285"/>
            <path id="Path_45" data-name="Path 45" d="M165.556,112.461h-2.235c-.212,1.335-1.348,2.072-3.046,2.072v-1.2a1.542,1.542,0,0,0,1.735-1.772v-4.768h1.4v4.244h2.147Z" fill="#828285"/>
            <path id="Path_46" data-name="Path 46" d="M167.854,112.461h-2.759v-1.423h2.759Z" fill="#828285"/>
            <path id="Path_47" data-name="Path 47" d="M170.326,112.461h-2.759v-1.423h2.759Z" fill="#828285"/>
            <path id="Path_48" data-name="Path 48" d="M179.851,112.461h-9.838v-1.423h6.854a3.033,3.033,0,0,0-.674-1.985,2.648,2.648,0,0,0-2.16-.949h-2.884l2.459-3.694h1.66l-1.685,2.384h.612a4.334,4.334,0,0,1,2.285.6,4.279,4.279,0,0,1,1.873,3.645h1.5Z" fill="#828285"/>
            <path id="Path_49" data-name="Path 49" d="M182.248,112.461h-2.759v-1.423h2.759Z" fill="#828285"/>
            <path id="Path_50" data-name="Path 50" d="M184.72,112.461h-2.759v-1.423h2.759Z" fill="#828285"/>
            <path id="Path_51" data-name="Path 51" d="M185.719,105.633h-1.373v-1.386h1.373Zm4.469,6.827H184.42v-1.423h1.3a.849.849,0,0,0,.836-.424,2.188,2.188,0,0,0,.15-.949v-2.871h1.386v2.8a2.39,2.39,0,0,1-.3,1.448h2.4Zm-2.1-6.827h-1.373v-1.386h1.373Z" fill="#828285"/>
            <path id="Path_52" data-name="Path 52" d="M192.573,112.461h-2.759v-1.423h2.759Z" fill="#828285"/>
            <path id="Path_53" data-name="Path 53" d="M195.045,112.461h-2.759v-1.423h2.759Z" fill="#828285"/>
            <path id="Path_54" data-name="Path 54" d="M200.513,112.461h-5.768v-1.423h1.3a.848.848,0,0,0,.836-.424,2.188,2.188,0,0,0,.15-.949v-2.871h1.386v2.8a2.389,2.389,0,0,1-.3,1.448h2.4Zm-2.11,2.746H197.03v-1.4H198.4Z" fill="#828285"/>
            <path id="Path_55" data-name="Path 55" d="M202.9,112.461h-2.759v-1.423H202.9Z" fill="#828285"/>
            <path id="Path_56" data-name="Path 56" d="M205.369,112.461H202.61v-1.423h2.759Z" fill="#828285"/>
            <path id="Path_57" data-name="Path 57" d="M212.36,110.688a2.731,2.731,0,0,1-2.8,2.883,2.651,2.651,0,0,1-2.26-1.111h-2.247v-1.423h1.723l-.012-.062a3.06,3.06,0,0,1-.025-.337,2.733,2.733,0,0,1,2.822-2.871A2.776,2.776,0,0,1,212.36,110.688Zm-1.436,0a1.494,1.494,0,0,0-1.4-1.66,1.43,1.43,0,0,0-1.348,1.6,1.5,1.5,0,0,0,1.423,1.648A1.4,1.4,0,0,0,210.925,110.688Z" fill="#828285"/>
          </g>
          <path id="Path_58" data-name="Path 58" d="M62.938,109.367a1.139,1.139,0,0,1,1.41,1.049,1.335,1.335,0,0,1-.839,1.5,1.132,1.132,0,0,1-1.355-.976,1.361,1.361,0,0,1,.785-1.572" fill="#828285"/>
        </g>
        <path id="Path_59" data-name="Path 59" d="M209.972,94.477a2.344,2.344,0,0,0-2.706,2.39,2.334,2.334,0,1,0,2.706-2.39" fill="#828285"/>
        <path id="Path_60" data-name="Path 60" d="M204.368,94.477a2.344,2.344,0,0,0-2.706,2.39,2.334,2.334,0,1,0,2.706-2.39" fill="#828285"/>
        <path id="Path_61" data-name="Path 61" d="M141.79,94.477a2.344,2.344,0,0,0-2.706,2.39,2.334,2.334,0,1,0,2.706-2.39" fill="#828285"/>
        <path id="Path_62" data-name="Path 62" d="M136.186,94.477a2.344,2.344,0,0,0-2.706,2.39,2.334,2.334,0,1,0,2.706-2.39" fill="#828285"/>
        <path id="Path_63" data-name="Path 63" d="M90.77,94.477a2.344,2.344,0,0,0-2.706,2.39,2.334,2.334,0,1,0,2.706-2.39" fill="#828285"/>
        <path id="Path_64" data-name="Path 64" d="M85.166,94.477a2.344,2.344,0,0,0-2.706,2.39,2.334,2.334,0,1,0,2.706-2.39" fill="#828285"/>
        <path id="Path_65" data-name="Path 65" d="M112.019,69.616a2.344,2.344,0,0,0-2.706,2.39,2.334,2.334,0,1,0,2.706-2.39" fill="#828285"/>
      </g>
    </g>
    <path id="Color_Overlay" data-name="Color Overlay" d="M1846.769,84a1.851,1.851,0,0,1-1.241-.956,2.908,2.908,0,0,1-.167-1.389V65.739h-1.334V46.59h1.341c0-1.075,0-2.156-.007-3.233a5.851,5.851,0,0,1-3.464-2.534,5.788,5.788,0,0,1-.359-5.427,5.866,5.866,0,0,1,5.723-3.363,6,6,0,0,1,3.8,1.959,5.73,5.73,0,0,1-3.48,9.463c0,1.043,0,2.086,0,3.135h1.347V65.739h-1.351v14.7a1.276,1.276,0,0,0,.555,1.129,1.887,1.887,0,0,0,1.12.219c.077,0,.155,0,.23,0q7.521-.009,15.041,0c.1,0,.2,0,.3,0a1.9,1.9,0,0,0,1.08-.2,1.271,1.271,0,0,0,.589-1.147q0-3.785,0-7.575c0-.51.015-1.024-.028-1.535l-.273-.022q-2.361-.008-4.72,0-2.433,0-4.863,0a1.681,1.681,0,0,1-1.665-1.661V33.665a1.685,1.685,0,0,1,1.668-1.7c.648,0,1.294,0,1.94,0s1.293,0,1.941,0a2.177,2.177,0,0,1,1.552-.966h.992a1,1,0,0,1,.843.882c.013.747.01,1.5,0,2.248a.953.953,0,0,1-.914.917,3.246,3.246,0,0,1-1.549-.186,2.31,2.31,0,0,1-.824-.67c-.808-.006-1.617-.02-2.428,0a1.237,1.237,0,0,0-1.12,1.257q-.011,13.97,0,27.947a1.256,1.256,0,0,0,1.235,1.344c6.051.013,12.107,0,18.156,0a1.273,1.273,0,0,0,1.347-1.334q.01-13.581,0-27.174a4.855,4.855,0,0,0-.061-1.19,1.239,1.239,0,0,0-1.174-.86c-.77-.01-1.54,0-2.307,0a2.564,2.564,0,0,1-2.675.8.947.947,0,0,1-.629-.872c-.006-.738-.01-1.485,0-2.229a1,1,0,0,1,.831-.888h.956a2.09,2.09,0,0,1,1.584.958c.751.015,1.5.013,2.256.011.589,0,1.177,0,1.767,0A1.741,1.741,0,0,1,1880,33.592V69.707a1.752,1.752,0,0,1-1.662,1.59q-2.437.011-4.878,0-2.188,0-4.377,0l-.334.016c-.022,3.632,0,7.267-.013,10.9a1.827,1.827,0,0,1-1.61,1.783ZM1865.3,67.162a.975.975,0,0,0-.924,1.026.992.992,0,0,0,1.04.9c1.338,0,2.676,0,4.013-.007a.962.962,0,0,0,.5-1.815,1.441,1.441,0,0,0-.725-.109c-.555,0-1.11,0-1.664,0h-1Q1865.915,67.158,1865.3,67.162Zm-22.121-30.274a3.7,3.7,0,1,0,3.983-2.777,3.272,3.272,0,0,0-.428-.029A3.755,3.755,0,0,0,1843.174,36.888Zm-19.957,45v-1.4h1.373v1.4Zm-145.98-.013v-1.4h1.373v1.4Zm-2.359,0v-1.4h1.373v1.4Zm111.585-1.859a1.542,1.542,0,0,0,1.735-1.772V73.475h1.4v4.243h13.458a3.029,3.029,0,0,0-.674-1.985,2.646,2.646,0,0,0-2.16-.95h-2.884l2.46-3.694h1.661l-1.686,2.384h.612a4.338,4.338,0,0,1,2.284.6,4.278,4.278,0,0,1,1.873,3.645h7.366a.846.846,0,0,0,.836-.425,2.182,2.182,0,0,0,.15-.948V73.475h1.386V76.27a2.39,2.39,0,0,1-.3,1.449h8.252a.846.846,0,0,0,.836-.425,2.183,2.183,0,0,0,.15-.948V73.475h1.386V76.27a2.389,2.389,0,0,1-.3,1.449h8.663l-.012-.063a3.031,3.031,0,0,1-.025-.337,2.733,2.733,0,0,1,2.821-2.87,2.775,2.775,0,0,1,2.8,2.921,2.73,2.73,0,0,1-2.8,2.882,2.651,2.651,0,0,1-2.26-1.11H1789.51c-.212,1.336-1.349,2.072-3.047,2.072Zm47.9-2.708a1.5,1.5,0,0,0,1.423,1.647,1.4,1.4,0,0,0,1.324-1.585,1.494,1.494,0,0,0-1.4-1.66A1.43,1.43,0,0,0,1834.366,77.307ZM1706.2,80.015a1.543,1.543,0,0,0,1.736-1.772V73.475h1.4v4.243h7.778a.885.885,0,0,0,.886-.411,2.733,2.733,0,0,0,.1-.9V71.091h1.4v5.791c0,1.511-.7,2.26-2.1,2.26h-8.152c-.212,1.336-1.348,2.072-3.047,2.072Zm76.629.075c.874-.025,1.311-.612,1.337-1.585a1.392,1.392,0,0,1-1.324.636,2.844,2.844,0,1,1,2.7-2.808v2.633c0,1.485-.9,2.234-2.71,2.234Zm-1.273-3.794a1.426,1.426,0,0,0,1.286,1.585,1.385,1.385,0,0,0,1.261-1.522c0-.974-.524-1.624-1.323-1.624C1782.043,74.735,1781.556,75.446,1781.556,76.3Zm-94.369,2.846h-18.314a2.334,2.334,0,0,1-2.26-1.848,1.919,1.919,0,0,1-1.6.937c-1.6,0-2.584-1.2-2.584-2.934,0-1.872.986-3.032,2.584-3.032h3.084V76.22c0,.974.462,1.5,1.4,1.5h6.779a.868.868,0,0,0,.85-.425,2.187,2.187,0,0,0,.149-.948V73.475h1.386V76.27a2.284,2.284,0,0,1-.312,1.449h8.277c-.013-.137-.013-.275-.013-.411a2.87,2.87,0,0,1,.774-2.061,2.722,2.722,0,0,1,2.035-.81,2.6,2.6,0,0,1,2.022.836,2.967,2.967,0,0,1,.774,2.084v.362h7.8a3.143,3.143,0,0,1-.362-1.485,2.731,2.731,0,0,1,2.822-2.885,2.776,2.776,0,0,1,2.8,2.921,2.721,2.721,0,0,1-2.8,2.872h-10.8a2.645,2.645,0,0,1-2.26,1.086A2.615,2.615,0,0,1,1687.188,79.142Zm1.186-2.946a1.817,1.817,0,0,0-.325,1.1,1.485,1.485,0,0,0,1.411,1.634,1.19,1.19,0,0,0,1-.473,1.833,1.833,0,0,0,.325-1.112,1.912,1.912,0,0,0-.337-1.135,1.293,1.293,0,0,0-1.062-.511A1.186,1.186,0,0,0,1688.374,76.2Zm12.722.024a1.5,1.5,0,0,0,1.41,1.635,1.4,1.4,0,0,0,1.337-1.586,1.483,1.483,0,0,0-1.411-1.646C1701.632,74.624,1701.1,75.246,1701.1,76.22Zm-37.278-.935c0,.961.536,1.785,1.373,1.785.911,0,1.46-.85,1.46-1.91V73.349h-1.261C1664.416,73.349,1663.817,74.123,1663.817,75.285ZM1774.6,79.142V71.078h1.386v8.063Zm-4.856,0h-37.34a2.334,2.334,0,0,1-2.26-1.848,1.919,1.919,0,0,1-1.6.937c-1.6,0-2.584-1.2-2.584-2.934,0-1.872.986-3.032,2.584-3.032h3.083V76.22c0,.974.463,1.5,1.4,1.5h12.684a3.081,3.081,0,0,0-.649-1.985,2.606,2.606,0,0,0-2.147-.95,2.721,2.721,0,0,0-1.049.239,3.049,3.049,0,0,0-1.123.785c-.138-.262-.363-.623-.675-1.1a4.728,4.728,0,0,1,1.337-.886,4.123,4.123,0,0,1,1.648-.349,3.988,3.988,0,0,1,4.144,4.243h6.966c.712,0,1.062-.487,1.062-1.472V74.074h1.4v1.734a5.014,5.014,0,0,1,3.833-2.359c2.11,0,3.183,1.435,3.221,4.27h7.253a.885.885,0,0,0,.886-.411,2.732,2.732,0,0,0,.1-.9V71.091h1.4v5.791c0,1.511-.7,2.26-2.1,2.26Zm-13.083-1.423h5.568l.024-.4c0-1.61-.749-2.621-1.935-2.621C1758.923,74.7,1757.437,76,1756.663,77.719Zm-29.314-2.434c0,.961.537,1.785,1.373,1.785.912,0,1.461-.85,1.461-1.91V73.349h-1.261C1727.949,73.349,1727.349,74.123,1727.349,75.285Zm-6.566,3.856V71.078h1.386v8.063Zm-32.442-1.522a1.359,1.359,0,0,1,.785-1.571,1.14,1.14,0,0,1,1.41,1.049,1.336,1.336,0,0,1-.84,1.5.9.9,0,0,1-.262.041A1.189,1.189,0,0,1,1688.341,77.62Zm124.564-5.305V70.929h1.373v1.385Zm-2.372,0V70.929h1.373v1.385Zm-107.553-.025V70.9h1.361v1.386Zm-2.372,0V70.9h1.361v1.386Zm29.538-1.037v-1.4h1.373v1.4Zm-2.36,0v-1.4h1.373v1.4Zm-61.173,0v-1.4h1.373v1.4Zm-2.36,0v-1.4h1.373v1.4Zm170.739-5.6a2.322,2.322,0,0,1-.428-4.168,2.327,2.327,0,0,1,1.6-.321,2.326,2.326,0,0,1,1.162,4.052,2.281,2.281,0,0,1-1.536.571A2.394,2.394,0,0,1,1834.993,65.648Zm-5.6,0a2.322,2.322,0,0,1-.428-4.168,2.329,2.329,0,0,1,1.6-.321,2.326,2.326,0,0,1,1.162,4.052,2.277,2.277,0,0,1-1.535.571A2.4,2.4,0,0,1,1829.389,65.648Zm-62.578,0a2.321,2.321,0,0,1-.428-4.168,2.326,2.326,0,0,1,1.595-.321,2.327,2.327,0,0,1,1.163,4.052,2.281,2.281,0,0,1-1.536.571A2.393,2.393,0,0,1,1766.811,65.648Zm-5.6,0a2.322,2.322,0,0,1-.428-4.168,2.327,2.327,0,0,1,1.6-.321,2.326,2.326,0,0,1,1.162,4.052,2.279,2.279,0,0,1-1.536.571A2.4,2.4,0,0,1,1761.206,65.648Zm-45.416,0a2.321,2.321,0,0,1-.428-4.168,2.328,2.328,0,0,1,1.6-.321,2.326,2.326,0,0,1,1.162,4.052,2.281,2.281,0,0,1-1.536.571A2.394,2.394,0,0,1,1715.791,65.648Zm-5.6,0a2.322,2.322,0,0,1-.428-4.168,2.328,2.328,0,0,1,1.6-.321,2.326,2.326,0,0,1,1.162,4.052,2.277,2.277,0,0,1-1.535.571A2.4,2.4,0,0,1,1710.186,65.648Zm115.95-6.773H1691.872V54.706h20.648v-11.7h4.169v11.7h18.988v-11.7h4.17v11.7h22.632v-11.7h4.169v11.7h18.988V36.248h4.17V54.706h18.288V52.954c0-1.715-.771-2.557-2.313-2.557H1794.85V43.183l9.109-6.83h6.9l-11.772,8.861v.98h6.622a6.211,6.211,0,0,1,6.586,6.339v2.173h22.632v-11.7h4.169V58.874Zm-157.76,0c-3.819,0-6.376-2.662-6.376-6.585V44.653h4.169V52.43c0,1.541.876,2.276,2.592,2.276h16.957V36.248h4.212V58.874Zm4.729-11.944V45.319h.946a2.912,2.912,0,0,1-.245-.945,2.734,2.734,0,0,1,2.838-2.8h1.227v1.612h-1.4c-.665,0-1.015.419-1.015,1.156,0,.665.35.98,1.085.98h2v1.612Zm172.58-6.185a3.145,3.145,0,0,1-.581-5.647,3.152,3.152,0,0,1,2.163-.436,3.152,3.152,0,0,1,1.575,5.49,3.089,3.089,0,0,1-2.082.776A3.185,3.185,0,0,1,1845.686,40.746Zm-108.646.041a2.334,2.334,0,1,1,2.329-.438,2.279,2.279,0,0,1-1.536.573A2.371,2.371,0,0,1,1737.04,40.786Z" fill="#fff"/>
  </g>
</svg>
