<svg xmlns="http://www.w3.org/2000/svg" width="180" height="41" viewBox="0 0 180 41">
  <g id="Vector_Smart_Object" data-name="Vector Smart Object" transform="translate(0 -107.263)">
    <g id="Layer_2" data-name="Layer 2">
      <g id="Layer_2-2" data-name="Layer 2-2">
        <path id="Path_1" data-name="Path 1" d="M5.606,107.263h.736a.776.776,0,0,1,.64.688c.01.575.008,1.156,0,1.724a.732.732,0,0,1-.485.675,1.969,1.969,0,0,1-2.061-.623c-.59,0-1.184-.007-1.777,0a.957.957,0,0,0-.9.667,3.862,3.862,0,0,0-.047.921v21.021a.979.979,0,0,0,1.037,1.032c4.661,0,9.327.008,13.989,0a.969.969,0,0,0,.954-.985c0-.019,0-.036,0-.055V110.712a.955.955,0,0,0-.862-.972c-.626-.017-1.248-.007-1.871,0a1.75,1.75,0,0,1-.635.519,2.5,2.5,0,0,1-1.194.144.738.738,0,0,1-.7-.712c-.007-.58-.01-1.156,0-1.739a.768.768,0,0,1,.65-.682h.764a1.675,1.675,0,0,1,1.195.741h2.991a1.3,1.3,0,0,1,1.285,1.312v27.829a1.3,1.3,0,0,1-1.282,1.285c-2.459.01-4.921,0-7.383.007a16.666,16.666,0,0,1-2.23,0c-2.375-.01-4.755,0-7.13-.007A1.351,1.351,0,0,1,0,137.206V109.268a1.344,1.344,0,0,1,1.286-1.254c1.033-.012,2.066.012,3.1-.01a1.611,1.611,0,0,1,1.219-.742m2.155,28.058a.744.744,0,0,0,.392,1.4q1.546.008,3.092.005a.76.76,0,0,0,.8-.7.751.751,0,0,0-.707-.793h0c-1-.011-2.007,0-3.013,0a1.1,1.1,0,0,0-.558.084" fill="#0a9ec9"/>
        <path id="Path_2" data-name="Path 2" d="M22.294,109.576a4.6,4.6,0,0,1,2.932-1.512,4.455,4.455,0,0,1,1.463,8.756c-.007.834,0,1.67,0,2.5H24.978V116.9a4.441,4.441,0,0,1-2.685-7.321m3.013.089a2.862,2.862,0,1,0,3.064,2.159,2.872,2.872,0,0,0-3.064-2.159" fill="#0a9ec9"/>
        <path id="Path_3" data-name="Path 3" d="M24.981,134.05h1.708v12.4a2.25,2.25,0,0,1-.129,1.074,1.426,1.426,0,0,1-.956.739H9.918a1.409,1.409,0,0,1-1.241-1.38c-.011-2.821.007-5.646-.011-8.469.588.01,1.177-.03,1.765.01-.037.407-.022.816-.025,1.223v5.859a.986.986,0,0,0,.455.89,2,2,0,0,0,1.063.154H23.514a1.8,1.8,0,0,0,1.04-.169.987.987,0,0,0,.428-.874V134.05" fill="#0a9ec9"/>
        <path id="Path_4" data-name="Path 4" d="M145.283,138.518a2.486,2.486,0,0,1,2.233.515,2.371,2.371,0,0,1-2.44,3.97,2.363,2.363,0,0,1,.214-4.484m.369.755a1.555,1.555,0,0,0,.246,3.07,1.568,1.568,0,0,0,1.441-1.879,1.511,1.511,0,0,0-1.684-1.19" fill="#828285"/>
        <path id="Path_5" data-name="Path 5" d="M145.556,139.553a1.245,1.245,0,1,1-.882,1.4,1.25,1.25,0,0,1,.882-1.4" fill="#828285"/>
        <path id="Path_6" data-name="Path 6" d="M25.221,110.1a2.441,2.441,0,1,1-2.012,1.993,2.449,2.449,0,0,1,2.012-1.993" fill="#828285"/>
        <path id="Path_7" data-name="Path 7" d="M79.878,138.275a1.733,1.733,0,0,1,.177.02c.656,1.613,1.329,3.215,1.98,4.833-.32.005-.637.005-.957.005-.137-.327-.266-.656-.394-.991H79.239c-.13.33-.26.656-.386.986-.325,0-.653.008-.975-.014.679-1.611,1.329-3.23,2.005-4.841m-.354,3.155c.29,0,.579,0,.872-.005-.141-.356-.279-.72-.419-1.079-.185.348-.3.722-.453,1.084" fill="#828285"/>
        <path id="Path_8" data-name="Path 8" d="M105.057,138.275c.044,0,.129.008.171.011.662,1.611,1.335,3.223,1.985,4.842-.32.005-.636.005-.953.011-.143-.332-.265-.661-.4-1h-1.444c-.132.33-.259.656-.386.986-.328,0-.65.008-.975-.012.672-1.613,1.329-3.232,2.005-4.843m.074,2.071c-.147.355-.287.722-.43,1.084.286-.005.573,0,.863,0a10.178,10.178,0,0,0-.433-1.084" fill="#828285"/>
        <path id="Path_9" data-name="Path 9" d="M131.343,138.219c.168-.025.266.13.372.232.828.936,1.684,1.843,2.5,2.782v-2.787h.886v4.927a.426.426,0,0,1-.286-.155c-.858-.955-1.724-1.9-2.581-2.862-.005.924,0,1.852-.005,2.776h-.886v-4.913" fill="#828285"/>
        <path id="Path_10" data-name="Path 10" d="M137.564,138.219c.171-.03.266.135.377.235.825.936,1.684,1.84,2.5,2.779-.007-.932,0-1.858,0-2.787h.886v4.927a.4.4,0,0,1-.28-.155c-.861-.955-1.726-1.9-2.587-2.862,0,.919-.011,1.843.009,2.762-.3.017-.6.014-.9.014v-4.913" fill="#828285"/>
        <path id="Path_11" data-name="Path 11" d="M156.566,138.275a1.617,1.617,0,0,1,.171.017c.659,1.613,1.329,3.216,1.982,4.835-.32.005-.636.005-.953.008-.143-.329-.266-.658-.4-.994h-1.448c-.127.33-.259.656-.384.986-.325,0-.653.008-.975-.012.667-1.616,1.329-3.232,2.005-4.843m-.361,3.155c.289,0,.579,0,.874-.005-.141-.356-.282-.72-.422-1.079-.177.348-.3.722-.452,1.084" fill="#828285"/>
        <path id="Path_12" data-name="Path 12" d="M35.32,138.446H38.7v.72H37.452c0,1.323.005,2.646-.006,3.972-.291-.005-.584-.005-.879-.005-.008-1.323.005-2.646-.006-3.969-.413.005-.83,0-1.241,0Z" fill="#828285"/>
        <path id="Path_13" data-name="Path 13" d="M40.874,138.446h.886v2.018c.552,0,1.106.014,1.657-.008-.013-.667,0-1.34-.005-2.01.292,0,.588,0,.88.005v4.681h-.886c.005-.65,0-1.3,0-1.949H41.762v1.949h-.886Z" fill="#828285"/>
        <path id="Path_14" data-name="Path 14" d="M46.618,138.446h2.9v.72H47.5v1.2h1.646v.719H47.5v1.329c.67.005,1.346-.017,2.016.008-.006.236-.008.474-.008.711H46.618v-4.686" fill="#828285"/>
        <path id="Path_15" data-name="Path 15" d="M55.329,138.446a5.14,5.14,0,0,1,2.481.3,2.3,2.3,0,0,1,1.031,2.206,2.182,2.182,0,0,1-1.112,1.927,5.722,5.722,0,0,1-2.4.252v-4.686m.886.795v3.108a1.613,1.613,0,0,0,1.47-.576,1.851,1.851,0,0,0-.074-2.067,1.652,1.652,0,0,0-1.4-.465" fill="#828285"/>
        <path id="Path_16" data-name="Path 16" d="M61.168,138.446h.886v4.686h-.886q-.008-2.346-.005-4.686" fill="#828285"/>
        <path id="Path_17" data-name="Path 17" d="M64.945,139.072a2.517,2.517,0,0,1,2.707-.412v.962c-.325-.08-.571-.356-.916-.37a1.553,1.553,0,0,0-1.568,1.9,1.5,1.5,0,0,0,2.087,1.027c0-.261-.005-.518-.005-.778h-.886v-.717h1.765v1.963a2.5,2.5,0,0,1-3.519-.546,2.433,2.433,0,0,1,.331-3.031" fill="#828285"/>
        <path id="Path_18" data-name="Path 18" d="M70.358,138.446h.886c0,1.564.008,3.13-.005,4.692-.292-.005-.588-.008-.88-.005v-4.686" fill="#828285"/>
        <path id="Path_19" data-name="Path 19" d="M73.328,138.446H76.7v.72H75.463v3.966h-.886c0-1.323.005-2.646,0-3.969-.417.005-.828,0-1.241,0v-.72" fill="#828285"/>
        <path id="Path_20" data-name="Path 20" d="M84.05,138.446h.886c.011,1.328-.014,2.652.013,3.977.627-.021,1.252-.005,1.875-.008v.717H84.053c-.008-1.564,0-3.125,0-4.686" fill="#828285"/>
        <path id="Path_21" data-name="Path 21" d="M92.284,138.446h.886v2.018h1.652v-2.018h.887v4.684h-.887c.008-.65,0-1.3,0-1.949H93.172v1.949h-.886Z" fill="#828285"/>
        <path id="Path_22" data-name="Path 22" d="M98.121,138.446h2.9v.72H99.01v1.2h1.649v.719H99.01v1.329h2.01v.717H98.124v-4.69" fill="#828285"/>
        <path id="Path_23" data-name="Path 23" d="M109.229,138.446h.886v3.969H112c.005.238.005.479.005.72h-2.773c-.005-1.564,0-3.125,0-4.686" fill="#828285"/>
        <path id="Path_24" data-name="Path 24" d="M113.25,138.446h3.373v.72h-1.241c0,1.323.007,2.646-.005,3.966h-.886v-3.964c-.413-.005-.83,0-1.241,0v-.72" fill="#828285"/>
        <path id="Path_25" data-name="Path 25" d="M118.8,138.446h.887v2.018c.551,0,1.1.005,1.657,0-.008-.67,0-1.342,0-2.015h.88v4.684c-.293,0-.588,0-.878.005-.008-.65,0-1.3-.005-1.957H119.7v1.949h-.887Z" fill="#828285"/>
        <path id="Path_26" data-name="Path 26" d="M128.091,138.446h.886c0,1.561.005,3.128,0,4.686h-.88v-4.686" fill="#828285"/>
        <path id="Path_27" data-name="Path 27" d="M149.678,138.449h.975c.4.938.78,1.88,1.2,2.8.354-.936.742-1.868,1.1-2.8h.965c-.658,1.616-1.309,3.242-1.985,4.85H151.8c-.734-1.611-1.426-3.236-2.127-4.855" fill="#828285"/>
        <path id="Path_28" data-name="Path 28" d="M159.869,138.446h3.375v.72H162c0,1.317-.011,2.637.007,3.956-.3.011-.6.011-.894.011-.009-1.323.008-2.646-.009-3.972-.413.008-.824.005-1.24.005v-.72" fill="#828285"/>
        <path id="Path_29" data-name="Path 29" d="M166.629,138.518a2.475,2.475,0,0,1,2.238.523,2.368,2.368,0,0,1-2.385,3.98,2.36,2.36,0,0,1,.146-4.5m.369.755a1.6,1.6,0,0,0-1.208,1.389,1.483,1.483,0,1,0,2.9-.2A1.514,1.514,0,0,0,167,139.274" fill="#828285"/>
        <path id="Path_30" data-name="Path 30" d="M171.84,138.446a12.21,12.21,0,0,1,2.039.072,1.652,1.652,0,0,1,.135,2.961c.4.549.824,1.088,1.208,1.65-.344,0-.687.005-1.024,0-.354-.529-.747-1.018-1.116-1.534h-.355v1.542h-.886v-4.692m.886.72c.005.573-.011,1.145.011,1.719.367-.019.809.056,1.09-.24a.979.979,0,0,0-.083-1.329,1.775,1.775,0,0,0-1.018-.149" fill="#828285"/>
        <path id="Path_31" data-name="Path 31" d="M177.579,138.826a1.437,1.437,0,0,1,2.127.2,3.285,3.285,0,0,1-.673.49c-.177-.055-.3-.249-.485-.277-.205.008-.443.2-.345.418.443.542,1.023.96,1.475,1.5a1.222,1.222,0,0,1-.032,1.486,1.647,1.647,0,0,1-2.563-.241c.243-.157.444-.416.734-.479a1.156,1.156,0,0,0,.64.421.629.629,0,0,0,.574-.432c-.013-.253-.236-.4-.389-.571-.354-.356-.738-.678-1.072-1.052a1.1,1.1,0,0,1,.013-1.458" fill="#828285"/>
        <path id="Path_32" data-name="Path 32" d="M24.119,119.307h3.5v14.976h-3.5Z" fill="#828285"/>
        <path id="Path_33" data-name="Path 33" d="M68.344,134.283h-3.5V109.7h3.5Z" fill="#828285"/>
        <path id="Path_34" data-name="Path 34" d="M81.049,130.772h8.746v3.511H81.049q-7,0-7-7.023V123.75q0-7.022,7-7.022h3.5q6.995,0,7,7.022v3.511H77.551Q77.551,130.773,81.049,130.772Zm-3.5-7.027H88.045q0-3.511-3.5-3.511h-3.5q-3.5,0-3.5,3.515Z" fill="#828285"/>
        <path id="Path_35" data-name="Path 35" d="M103.828,130.772h8.745v3.511h-8.745q-6.995,0-7-7.023V123.75q0-7.022,7-7.022h3.5q7,0,7,7.022v3.511h-14Q100.33,130.773,103.828,130.772Zm-3.5-7.027h10.493q0-3.511-3.5-3.511h-3.5q-3.5,0-3.5,3.515Z" fill="#828285"/>
        <path id="Path_36" data-name="Path 36" d="M123.231,123.75v10.534h-3.5V123.75q0-7.022,7-7.022h3.5q7,0,7,7.022v10.534h-3.5V123.75q0-3.511-3.5-3.511h-3.5Q123.231,120.239,123.231,123.75Z" fill="#828285"/>
        <path id="Path_37" data-name="Path 37" d="M144.9,110.1a2.441,2.441,0,1,1-2.01,1.993,2.449,2.449,0,0,1,2.01-1.993" fill="#828285"/>
        <path id="Path_38" data-name="Path 38" d="M143.544,119.307h3.5v14.976h-3.5Z" fill="#828285"/>
        <path id="Path_39" data-name="Path 39" d="M55.33,134.283,41.609,123.453a2.072,2.072,0,0,1-.725-.863,2.741,2.741,0,0,1-.152-.931,2.408,2.408,0,0,1,.2-1.015,2.755,2.755,0,0,1,.876-.947l12.979-10.013h6.574L45.317,121.7l16.553,12.588Z" fill="#828285"/>
        <path id="Path_40" data-name="Path 40" d="M173.46,134.283l-13.721-10.831a2.079,2.079,0,0,1-.725-.863,2.77,2.77,0,0,1-.151-.931,2.413,2.413,0,0,1,.2-1.015,2.759,2.759,0,0,1,.877-.947l12.979-10.013h6.574L163.447,121.7,180,134.283Z" fill="#3bb44a"/>
        <rect id="Rectangle_1" data-name="Rectangle 1" width="3.572" height="24.601" transform="translate(153.709 109.683)" fill="#828285"/>
        <rect id="Rectangle_2" data-name="Rectangle 2" width="3.572" height="24.601" transform="translate(35.491 109.683)" fill="#828285"/>
      </g>
    </g>
  </g>
</svg>
