<svg xmlns="http://www.w3.org/2000/svg" width="174.544" height="42.435" viewBox="0 0 174.544 42.435">
  <g id="Group_3" data-name="Group 3" transform="translate(-28.674 -51.498)">
    <path id="Path_1" data-name="Path 1" d="M197.392,51.5a1.674,1.674,0,0,1,1.269.768c1.074.023,2.147,0,3.221.01a1.394,1.394,0,0,1,1.336,1.3V82.489a1.4,1.4,0,0,1-1.331,1.274c-2.468.013-4.942,0-7.41.008a17.437,17.437,0,0,1-2.317,0c-2.558-.01-5.117,0-7.672-.008a1.346,1.346,0,0,1-1.333-1.33v-28.8a1.349,1.349,0,0,1,1.336-1.358c1.038-.005,2.07,0,3.108,0a1.743,1.743,0,0,1,1.243-.773h.794a.8.8,0,0,1,.675.706c.01.6.008,1.2,0,1.8a.764.764,0,0,1-.732.734,2.61,2.61,0,0,1-1.241-.149,1.851,1.851,0,0,1-.66-.537c-.647,0-1.294-.015-1.944,0a.99.99,0,0,0-.9,1.007q-.008,11.185,0,22.376a1,1,0,0,0,.989,1.076c4.844.01,9.693,0,14.537,0a1.019,1.019,0,0,0,1.079-1.068q.007-10.873,0-21.757a3.931,3.931,0,0,0-.049-.953.993.993,0,0,0-.94-.688c-.616-.008-1.233,0-1.847,0a2.053,2.053,0,0,1-2.142.642.758.758,0,0,1-.5-.7c-.005-.591-.008-1.189,0-1.785a.8.8,0,0,1,.665-.711h.765m-2.24,29.039a1.143,1.143,0,0,0-.58-.087c-1.043,0-2.085-.008-3.128,0a.78.78,0,0,0-.74.822.794.794,0,0,0,.832.722q1.607,0,3.213-.005a.77.77,0,0,0,.4-1.453" fill="#0a9ec9"/>
    <path id="Path_2" data-name="Path 2" d="M180.051,53.894a4.589,4.589,0,0,1-2.787,7.577c0,.835,0,1.669,0,2.509h-1.772c0-.86,0-1.725-.005-2.588a4.685,4.685,0,0,1-2.774-2.028,4.632,4.632,0,0,1-.287-4.345A4.7,4.7,0,0,1,177,52.325a4.806,4.806,0,0,1,3.046,1.569m-3.128.095a2.956,2.956,0,1,0,2.507,2.059,2.985,2.985,0,0,0-2.507-2.059" fill="#0a9ec9"/>
    <path id="Path_3" data-name="Path 3" d="M177.259,79.222h-1.775V92.056a2.328,2.328,0,0,0,.134,1.112,1.484,1.484,0,0,0,.994.765h16.3a1.462,1.462,0,0,0,1.289-1.428c.01-2.919-.008-5.844.01-8.766-.611.01-1.222-.031-1.834.01.038.421.023.845.026,1.266q0,3.031,0,6.065a1.019,1.019,0,0,1-.472.919,2.061,2.061,0,0,1-1.1.159q-6.018,0-12.043,0a1.876,1.876,0,0,1-1.081-.175,1.02,1.02,0,0,1-.444-.9V79.222" fill="#0a9ec9"/>
    <path id="Path_4" data-name="Path 4" d="M177.01,54.431a2.543,2.543,0,0,0-2.936,2.593,2.533,2.533,0,1,0,2.936-2.593" fill="#828285"/>
    <path id="Path_5" data-name="Path 5" d="M178.34,63.98h-3.925V79.312h3.925Z" fill="#828285"/>
    <g id="Group_1" data-name="Group 1">
      <path id="Path_6" data-name="Path 6" d="M51.036,73.815H33.779a4.919,4.919,0,0,1-5.105-5.272V62.429h3.338v6.226c0,1.234.7,1.823,2.076,1.823H47.664V55.7h3.372ZM41.381,59.962v1.29H40.258c-.533,0-.813.336-.813.925,0,.533.281.785.87.785h1.6v1.29H37.566v-1.29h.757a2.322,2.322,0,0,1-.2-.757A2.189,2.189,0,0,1,40.4,59.962Z" fill="#3bb44a"/>
      <path id="Path_7" data-name="Path 7" d="M52.591,70.478h9.94v3.337h-9.94Z" fill="#828285"/>
      <path id="Path_8" data-name="Path 8" d="M62.082,70.478h7.041V61.111h3.338v9.367h.168v3.337H62.082Z" fill="#828285"/>
      <path id="Path_9" data-name="Path 9" d="M72.18,70.478H83.99v3.337H72.18Z" fill="#828285"/>
      <path id="Path_10" data-name="Path 10" d="M83.541,70.478h4.123V61.111H91v9.367h.168v3.337h-7.63Z" fill="#828285"/>
      <path id="Path_11" data-name="Path 11" d="M90.722,70.478h11.809v3.337H90.722Z" fill="#828285"/>
      <path id="Path_12" data-name="Path 12" d="M102.082,70.478h7.041V61.111h3.338v9.367h.168v3.337H102.082Z" fill="#828285"/>
      <path id="Path_13" data-name="Path 13" d="M112.181,70.478H123.99v3.337H112.181Z" fill="#828285"/>
      <path id="Path_14" data-name="Path 14" d="M123.541,70.478h4.123V55.7H131V70.478h.168v3.337h-7.63Z" fill="#828285"/>
      <path id="Path_15" data-name="Path 15" d="M135.042,67.029V61.252l7.293-5.469h5.526l-9.425,7.1v.785h5.3a4.973,4.973,0,0,1,5.274,5.076v1.739h.168v3.337H131V70.478h14.642v-1.4c0-1.374-.617-2.047-1.851-2.047Z" fill="#828285"/>
      <path id="Path_16" data-name="Path 16" d="M148.731,70.478H160.54v3.337H148.731Z" fill="#828285"/>
      <path id="Path_17" data-name="Path 17" d="M160.091,70.478h7.041V61.111h3.338v12.7H160.091Z" fill="#828285"/>
    </g>
    <g id="Group_2" data-name="Group 2">
      <path id="Path_18" data-name="Path 18" d="M35.386,90.043h-1.21a1.869,1.869,0,0,1-1.809-1.479,1.536,1.536,0,0,1-1.279.749,2.088,2.088,0,0,1-2.069-2.348c0-1.5.79-2.428,2.069-2.428h2.469V87.7c0,.78.37,1.2,1.12,1.2h.71ZM32.4,86.855V85.406h-1.01c-.78,0-1.26.62-1.26,1.549,0,.77.43,1.429,1.1,1.429C31.958,88.384,32.4,87.7,32.4,86.855Zm-.82-3.128h-1.1V82.608h1.1Zm1.889,0h-1.1V82.608h1.1Z" fill="#828285"/>
      <path id="Path_19" data-name="Path 19" d="M37.315,90.043H35.106V88.9h2.209Z" fill="#828285"/>
      <path id="Path_20" data-name="Path 20" d="M39.295,90.043H37.085V88.9h2.209Z" fill="#828285"/>
      <path id="Path_21" data-name="Path 21" d="M40.084,92.231h-1.1V91.112h1.1Zm3.559-2.189H39.035V88.9H40.1a.7.7,0,0,0,.68-.34,1.752,1.752,0,0,0,.12-.76v-2.3h1.109v2.239a1.83,1.83,0,0,1-.25,1.159h1.879Zm-1.669,2.189h-1.1V91.112h1.1Z" fill="#828285"/>
      <path id="Path_22" data-name="Path 22" d="M45.592,90.043H43.383V88.9h2.209Z" fill="#828285"/>
      <path id="Path_23" data-name="Path 23" d="M47.571,90.043H45.362V88.9h2.209Z" fill="#828285"/>
      <path id="Path_24" data-name="Path 24" d="M53.868,90.043H52.439a2.118,2.118,0,0,1-1.809.869,2.094,2.094,0,0,1-1.789-.869H47.311V88.9h1.08c-.01-.11-.01-.22-.01-.33A2.3,2.3,0,0,1,49,86.925a2.177,2.177,0,0,1,1.629-.65,2.083,2.083,0,0,1,1.619.67,2.378,2.378,0,0,1,.62,1.669v.29h1ZM51.719,88.6a1.528,1.528,0,0,0-.27-.909,1.033,1.033,0,0,0-.85-.41.952.952,0,0,0-.81.4,1.456,1.456,0,0,0-.26.88,1.189,1.189,0,0,0,1.129,1.309.955.955,0,0,0,.8-.38A1.467,1.467,0,0,0,51.719,88.6Z" fill="#828285"/>
      <path id="Path_25" data-name="Path 25" d="M55.758,90.043H53.548V88.9h2.209Z" fill="#828285"/>
      <path id="Path_26" data-name="Path 26" d="M57.737,90.043H55.528V88.9h2.209Z" fill="#828285"/>
      <path id="Path_27" data-name="Path 27" d="M63.324,87.744a2.178,2.178,0,0,1-2.239,2.3H57.527V88.9h1.589a2.52,2.52,0,0,1-.29-1.189,2.186,2.186,0,0,1,2.259-2.308A2.222,2.222,0,0,1,63.324,87.744Zm-2.649-3.188h-1.09V83.447h1.09Zm1.5,3.188a1.188,1.188,0,0,0-1.13-1.319c-.64,0-1.07.5-1.07,1.279a1.2,1.2,0,0,0,1.13,1.309A1.123,1.123,0,0,0,62.175,87.744Zm.4-3.188h-1.09V83.447h1.09Z" fill="#828285"/>
      <path id="Path_28" data-name="Path 28" d="M68.292,90.043H66.5c-.17,1.069-1.08,1.659-2.439,1.659v-.959a1.235,1.235,0,0,0,1.389-1.419V85.506h1.119v3.4h1.719Z" fill="#828285"/>
      <path id="Path_29" data-name="Path 29" d="M70.131,90.043H67.922V88.9h2.209Z" fill="#828285"/>
      <path id="Path_30" data-name="Path 30" d="M72.111,90.043H69.9V88.9h2.209Z" fill="#828285"/>
      <path id="Path_31" data-name="Path 31" d="M74.71,88.234c0,1.209-.56,1.809-1.679,1.809H71.851V88.9h.95a.708.708,0,0,0,.71-.33,2.176,2.176,0,0,0,.08-.72V83.6h1.12Z" fill="#828285"/>
      <path id="Path_32" data-name="Path 32" d="M76.848,90.043H75.739V83.587h1.109Z" fill="#828285"/>
      <path id="Path_33" data-name="Path 33" d="M86.254,90.043h-1.21a1.869,1.869,0,0,1-1.809-1.479,1.536,1.536,0,0,1-1.28.749,2.088,2.088,0,0,1-2.069-2.348c0-1.5.79-2.428,2.069-2.428h2.469V87.7c0,.78.37,1.2,1.12,1.2h.71Zm-2.989-3.188V85.406h-1.01c-.78,0-1.259.62-1.259,1.549,0,.77.43,1.429,1.1,1.429C82.826,88.384,83.266,87.7,83.266,86.855Zm-.82-3.128h-1.1V82.608h1.1Zm1.889,0h-1.1V82.608h1.1Z" fill="#828285"/>
      <path id="Path_34" data-name="Path 34" d="M88.184,90.043H85.974V88.9h2.209Z" fill="#828285"/>
      <path id="Path_35" data-name="Path 35" d="M90.163,90.043H87.954V88.9h2.209Z" fill="#828285"/>
      <path id="Path_36" data-name="Path 36" d="M97.949,90.043H89.923V88.9H95.7a2.47,2.47,0,0,0-.52-1.589,2.088,2.088,0,0,0-1.719-.759,2.186,2.186,0,0,0-.84.19,2.435,2.435,0,0,0-.9.63c-.11-.21-.29-.5-.54-.879a3.765,3.765,0,0,1,1.07-.71,3.3,3.3,0,0,1,1.319-.28,3.194,3.194,0,0,1,3.319,3.4h1.059Z" fill="#828285"/>
      <path id="Path_37" data-name="Path 37" d="M99.879,90.043H97.67V88.9h2.209Z" fill="#828285"/>
      <path id="Path_38" data-name="Path 38" d="M101.858,90.043H99.649V88.9h2.209Z" fill="#828285"/>
      <path id="Path_39" data-name="Path 39" d="M111.264,90.043h-9.916V88.9h1.119c.57,0,.85-.39.85-1.179V85.985h1.119v1.389a4.011,4.011,0,0,1,3.069-1.889c1.689,0,2.549,1.149,2.579,3.418h1.179ZM108.925,88.9l.02-.32c0-1.289-.6-2.1-1.549-2.1a3.711,3.711,0,0,0-2.929,2.418Z" fill="#828285"/>
      <path id="Path_40" data-name="Path 40" d="M113.223,90.043h-2.209V88.9h2.209Z" fill="#828285"/>
      <path id="Path_41" data-name="Path 41" d="M115.2,90.043h-2.209V88.9H115.2Z" fill="#828285"/>
      <path id="Path_42" data-name="Path 42" d="M117.8,88.234c0,1.209-.56,1.809-1.679,1.809h-1.18V88.9h.95a.708.708,0,0,0,.71-.33,2.175,2.175,0,0,0,.08-.72V83.6H117.8Z" fill="#828285"/>
      <path id="Path_43" data-name="Path 43" d="M119.94,90.043h-1.11V83.587h1.11Z" fill="#828285"/>
      <path id="Path_44" data-name="Path 44" d="M127.587,89.9c0,1.189-.72,1.789-2.169,1.789V90.8c.7-.02,1.05-.49,1.07-1.269a1.112,1.112,0,0,1-1.06.51,2.277,2.277,0,1,1,2.159-2.249Zm-1.149-2.089c0-.78-.42-1.3-1.06-1.3-.59,0-.98.57-.98,1.249a1.142,1.142,0,0,0,1.03,1.269A1.109,1.109,0,0,0,126.437,87.814Z" fill="#828285"/>
      <path id="Path_45" data-name="Path 45" d="M132.555,90.043h-1.789c-.17,1.069-1.08,1.659-2.439,1.659v-.959a1.235,1.235,0,0,0,1.389-1.419V85.506h1.119v3.4h1.719Z" fill="#828285"/>
      <path id="Path_46" data-name="Path 46" d="M134.394,90.043h-2.209V88.9h2.209Z" fill="#828285"/>
      <path id="Path_47" data-name="Path 47" d="M136.373,90.043h-2.209V88.9h2.209Z" fill="#828285"/>
      <path id="Path_48" data-name="Path 48" d="M144,90.043h-7.877V88.9h5.488a2.428,2.428,0,0,0-.54-1.589,2.12,2.12,0,0,0-1.729-.759h-2.309L139,83.6h1.329l-1.349,1.909h.49a3.47,3.47,0,0,1,1.829.48,3.426,3.426,0,0,1,1.5,2.918H144Z" fill="#828285"/>
      <path id="Path_49" data-name="Path 49" d="M145.919,90.043H143.71V88.9h2.209Z" fill="#828285"/>
      <path id="Path_50" data-name="Path 50" d="M147.9,90.043h-2.209V88.9H147.9Z" fill="#828285"/>
      <path id="Path_51" data-name="Path 51" d="M148.7,84.576h-1.1V83.467h1.1Zm3.579,5.466h-4.618V88.9h1.04a.679.679,0,0,0,.67-.34,1.752,1.752,0,0,0,.12-.76v-2.3h1.11v2.239a1.913,1.913,0,0,1-.24,1.159h1.919ZM150.6,84.576h-1.1V83.467h1.1Z" fill="#828285"/>
      <path id="Path_52" data-name="Path 52" d="M154.185,90.043h-2.209V88.9h2.209Z" fill="#828285"/>
      <path id="Path_53" data-name="Path 53" d="M156.165,90.043h-2.209V88.9h2.209Z" fill="#828285"/>
      <path id="Path_54" data-name="Path 54" d="M160.543,90.043h-4.618V88.9h1.04a.679.679,0,0,0,.67-.34,1.752,1.752,0,0,0,.12-.76v-2.3h1.11v2.239a1.913,1.913,0,0,1-.24,1.159h1.919Zm-1.689,2.2h-1.1V91.122h1.1Z" fill="#828285"/>
      <path id="Path_55" data-name="Path 55" d="M162.452,90.043h-2.209V88.9h2.209Z" fill="#828285"/>
      <path id="Path_56" data-name="Path 56" d="M164.431,90.043h-2.209V88.9h2.209Z" fill="#828285"/>
      <path id="Path_57" data-name="Path 57" d="M170.029,88.624a2.186,2.186,0,0,1-2.239,2.309,2.122,2.122,0,0,1-1.809-.889h-1.8V88.9h1.379l-.01-.05a2.449,2.449,0,0,1-.02-.27,2.189,2.189,0,0,1,2.259-2.3A2.222,2.222,0,0,1,170.029,88.624Zm-1.149,0a1.2,1.2,0,0,0-1.119-1.329,1.145,1.145,0,0,0-1.08,1.279,1.2,1.2,0,0,0,1.139,1.319A1.123,1.123,0,0,0,168.879,88.624Z" fill="#828285"/>
    </g>
    <path id="Path_58" data-name="Path 58" d="M50.392,87.566a.912.912,0,0,1,1.129.84,1.069,1.069,0,0,1-.672,1.2.906.906,0,0,1-1.085-.781,1.09,1.09,0,0,1,.628-1.258" fill="#828285"/>
  </g>
</svg>
