<svg xmlns="http://www.w3.org/2000/svg" width="237.001" height="54" viewBox="0 0 237.001 54">
  <g id="Vector_Smart_Object" data-name="Vector Smart Object" transform="translate(-40 -30)">
    <g id="Vector_Smart_Object-2" data-name="Vector Smart Object" transform="translate(40 -111.273)">
      <g id="Layer_2" data-name="Layer 2">
        <g id="Layer_2-2" data-name="Layer 2-2">
          <path id="Path_81" data-name="Path 81" d="M7.381,141.273h.969a1.022,1.022,0,0,1,.842.906c.013.758.011,1.523,0,2.271a.964.964,0,0,1-.638.889,2.592,2.592,0,0,1-2.714-.82c-.777,0-1.559-.009-2.339,0a1.261,1.261,0,0,0-1.188.879,5.088,5.088,0,0,0-.062,1.212V174.3a1.289,1.289,0,0,0,1.365,1.359c6.138,0,12.281.01,18.418,0a1.277,1.277,0,0,0,1.256-1.3c0-.024,0-.048,0-.072V145.816a1.258,1.258,0,0,0-1.135-1.281c-.824-.022-1.643-.009-2.463,0a2.3,2.3,0,0,1-.836.683,3.291,3.291,0,0,1-1.572.19.972.972,0,0,1-.928-.937c-.009-.764-.013-1.523,0-2.29a1.011,1.011,0,0,1,.856-.9h1.006a2.206,2.206,0,0,1,1.573.976h3.938a1.708,1.708,0,0,1,1.692,1.728v36.653a1.709,1.709,0,0,1-1.688,1.693c-3.238.013-6.479,0-9.721.01a21.934,21.934,0,0,1-2.936,0c-3.127-.013-6.261.006-9.388-.01A1.78,1.78,0,0,1,0,180.71v-36.8a1.77,1.77,0,0,1,1.693-1.651c1.36-.016,2.72.016,4.084-.013a2.121,2.121,0,0,1,1.6-.977m2.837,36.954a.98.98,0,0,0,.516,1.849q2.035.01,4.071.007a1,1,0,0,0,1.05-.919.989.989,0,0,0-.93-1.045h0c-1.321-.014-2.643,0-3.967,0a1.442,1.442,0,0,0-.735.111" fill="#0a9ec9"/>
          <path id="Path_82" data-name="Path 82" d="M29.353,144.319a6.055,6.055,0,0,1,3.86-1.992A5.868,5.868,0,0,1,35.14,153.86c-.009,1.1-.006,2.2-.006,3.294H32.888v-3.193a5.849,5.849,0,0,1-3.535-9.642m3.967.117a2.474,2.474,0,1,1,0,.006" fill="#0a9ec9"/>
          <path id="Path_83" data-name="Path 83" d="M32.892,176.554H35.14v16.331a2.965,2.965,0,0,1-.169,1.415,1.877,1.877,0,0,1-1.259.973H13.059a1.856,1.856,0,0,1-1.634-1.817c-.014-3.715.009-7.437-.014-11.154.775.013,1.55-.04,2.324.013-.049.536-.029,1.075-.033,1.611v7.717a1.3,1.3,0,0,0,.6,1.172,2.625,2.625,0,0,0,1.4.2H30.96a2.374,2.374,0,0,0,1.37-.223,1.3,1.3,0,0,0,.564-1.15v-15.09" fill="#0a9ec9"/>
          <path id="Path_84" data-name="Path 84" d="M191.289,182.439a3.273,3.273,0,0,1,2.94.678,3.123,3.123,0,0,1-3.212,5.229,3.112,3.112,0,0,1,.282-5.906m.487.995a2.048,2.048,0,0,0,.324,4.043,2.066,2.066,0,0,0,1.9-2.475,1.99,1.99,0,0,0-2.217-1.568" fill="#828285"/>
          <path id="Path_85" data-name="Path 85" d="M191.648,183.8a1.64,1.64,0,1,1-1.162,1.844,1.646,1.646,0,0,1,1.162-1.844" fill="#828285"/>
          <path id="Path_86" data-name="Path 86" d="M33.208,145a3.215,3.215,0,1,1-2.649,2.626A3.224,3.224,0,0,1,33.208,145" fill="#828285"/>
          <path id="Path_87" data-name="Path 87" d="M105.172,182.118a2.284,2.284,0,0,1,.233.026c.864,2.125,1.75,4.235,2.607,6.365-.421.007-.839.007-1.26.007-.181-.43-.35-.863-.519-1.305h-1.9c-.172.435-.342.864-.509,1.3-.428,0-.86.011-1.283-.019.893-2.121,1.75-4.254,2.64-6.376m-.467,4.156c.381,0,.763,0,1.148-.007-.186-.469-.367-.948-.552-1.421-.244.458-.4.951-.6,1.428" fill="#828285"/>
          <path id="Path_88" data-name="Path 88" d="M138.326,182.118c.058,0,.17.01.225.014.872,2.122,1.757,4.245,2.614,6.377-.421.007-.838.007-1.255.014-.189-.437-.35-.871-.524-1.312h-1.9c-.174.435-.342.864-.509,1.3-.432,0-.856.011-1.284-.015.885-2.125,1.75-4.257,2.64-6.379m.1,2.728c-.193.468-.378.951-.566,1.428.377-.007.755,0,1.136,0a13.413,13.413,0,0,0-.57-1.428" fill="#828285"/>
          <path id="Path_89" data-name="Path 89" d="M172.934,182.044c.221-.033.35.171.49.306,1.09,1.232,2.217,2.427,3.293,3.664v-3.671h1.166v6.489a.561.561,0,0,1-.376-.2c-1.13-1.258-2.27-2.508-3.4-3.77-.007,1.217,0,2.439-.007,3.656h-1.167v-6.471" fill="#828285"/>
          <path id="Path_90" data-name="Path 90" d="M181.126,182.044c.225-.04.35.178.5.309,1.086,1.232,2.217,2.424,3.291,3.66-.009-1.228,0-2.446,0-3.671h1.166v6.489a.533.533,0,0,1-.369-.2c-1.133-1.258-2.273-2.508-3.407-3.77,0,1.21-.014,2.427.012,3.637-.393.022-.785.019-1.18.019v-6.471" fill="#828285"/>
          <path id="Path_91" data-name="Path 91" d="M206.146,182.118a2.129,2.129,0,0,1,.225.022c.868,2.125,1.75,4.236,2.61,6.368-.421.007-.838.007-1.255.011-.189-.434-.35-.867-.522-1.309H205.3c-.167.435-.342.864-.506,1.3-.428,0-.86.011-1.284-.015.879-2.129,1.75-4.257,2.64-6.379m-.475,4.156c.38,0,.762,0,1.15-.007-.185-.469-.371-.948-.555-1.421-.233.458-.4.951-.595,1.428" fill="#828285"/>
          <path id="Path_92" data-name="Path 92" d="M46.5,182.344h4.444v.948H49.312c0,1.742.007,3.485-.008,5.231-.384-.007-.769-.007-1.157-.007-.01-1.742.007-3.485-.008-5.228-.544.007-1.092,0-1.634,0Z" fill="#828285"/>
          <path id="Path_93" data-name="Path 93" d="M53.817,182.344h1.167V185c.727,0,1.456.019,2.182-.01-.018-.879,0-1.765-.007-2.647.385,0,.774,0,1.159.007v6.165H57.151c.007-.857,0-1.709,0-2.567H54.986v2.567H53.819Z" fill="#828285"/>
          <path id="Path_94" data-name="Path 94" d="M61.38,182.344h3.813v.948H62.542v1.586h2.167v.947H62.54v1.751c.882.007,1.772-.022,2.654.011-.008.31-.011.624-.011.937h-3.8v-6.172" fill="#828285"/>
          <path id="Path_95" data-name="Path 95" d="M72.851,182.344c1.093.047,2.277-.183,3.267.4a3.03,3.03,0,0,1,1.358,2.9,2.874,2.874,0,0,1-1.464,2.538,7.532,7.532,0,0,1-3.162.331v-6.172m1.167,1.047v4.093a2.123,2.123,0,0,0,1.935-.758,2.439,2.439,0,0,0-.1-2.722,2.174,2.174,0,0,0-1.841-.613" fill="#828285"/>
          <path id="Path_96" data-name="Path 96" d="M80.537,182.344H81.7v6.172H80.537q-.01-3.089-.007-6.172" fill="#828285"/>
          <path id="Path_97" data-name="Path 97" d="M85.511,183.168a3.313,3.313,0,0,1,3.565-.542v1.268c-.428-.105-.752-.469-1.206-.487a2.045,2.045,0,0,0-2.065,2.5,1.968,1.968,0,0,0,2.748,1.353c0-.343-.007-.682-.007-1.025H87.38v-.945H89.7v2.586a3.286,3.286,0,0,1-4.633-.719,3.2,3.2,0,0,1,.436-3.992" fill="#828285"/>
          <path id="Path_98" data-name="Path 98" d="M92.638,182.344h1.167c0,2.06.01,4.123-.007,6.179-.385-.007-.774-.011-1.159-.007v-6.172" fill="#828285"/>
          <path id="Path_99" data-name="Path 99" d="M96.548,182.344h4.444v.948H99.359v5.224H98.193c0-1.742.007-3.485,0-5.228-.549.007-1.09,0-1.634,0v-.948" fill="#828285"/>
          <path id="Path_100" data-name="Path 100" d="M110.666,182.344h1.167c.014,1.749-.019,3.493.018,5.238.825-.028,1.649-.007,2.469-.01v.944h-3.65c-.011-2.06,0-4.116,0-6.172" fill="#828285"/>
          <path id="Path_101" data-name="Path 101" d="M121.507,182.344h1.166V185h2.175v-2.658h1.167v6.169h-1.167c.011-.856,0-1.709,0-2.567h-2.171v2.567H121.51Z" fill="#828285"/>
          <path id="Path_102" data-name="Path 102" d="M129.193,182.344h3.816v.948h-2.646v1.586h2.171v.947h-2.171v1.751h2.646v.945H129.2v-6.177" fill="#828285"/>
          <path id="Path_103" data-name="Path 103" d="M143.819,182.344h1.167v5.228h2.479c.007.314.007.63.007.948H143.82c-.007-2.06,0-4.116,0-6.172" fill="#828285"/>
          <path id="Path_104" data-name="Path 104" d="M149.113,182.344h4.441v.948h-1.634c0,1.742.009,3.485-.007,5.224h-1.167V183.3c-.543-.007-1.092,0-1.634,0v-.948" fill="#828285"/>
          <path id="Path_105" data-name="Path 105" d="M156.425,182.344h1.167V185c.725,0,1.451.007,2.182,0-.011-.882,0-1.768,0-2.654h1.159v6.169c-.386,0-.774,0-1.155.007-.01-.857,0-1.713-.007-2.578H157.6v2.567h-1.167Z" fill="#828285"/>
          <path id="Path_106" data-name="Path 106" d="M168.654,182.344h1.166c0,2.056.007,4.119,0,6.172h-1.159v-6.172" fill="#828285"/>
          <path id="Path_107" data-name="Path 107" d="M197.076,182.347h1.284c.53,1.236,1.026,2.476,1.583,3.693.466-1.233.977-2.461,1.455-3.69h1.27c-.867,2.129-1.724,4.269-2.613,6.388h-.182c-.966-2.122-1.877-4.263-2.8-6.395" fill="#828285"/>
          <path id="Path_108" data-name="Path 108" d="M210.495,182.344h4.444v.948H213.3c0,1.735-.014,3.473.009,5.21-.4.014-.788.014-1.177.014-.012-1.742.011-3.485-.012-5.231-.543.01-1.085.007-1.633.007v-.948" fill="#828285"/>
          <path id="Path_109" data-name="Path 109" d="M219.4,182.439a3.258,3.258,0,0,1,2.947.689,3.118,3.118,0,0,1-3.14,5.242,3.108,3.108,0,0,1,.193-5.931m.486.995a2.107,2.107,0,0,0-1.591,1.83,1.953,1.953,0,1,0,3.819-.257,1.994,1.994,0,0,0-2.228-1.573" fill="#828285"/>
          <path id="Path_110" data-name="Path 110" d="M226.257,182.344a16.069,16.069,0,0,1,2.684.1c1.671.477,1.743,3.237.178,3.9.526.723,1.085,1.433,1.59,2.173-.453,0-.9.007-1.348,0-.467-.7-.984-1.341-1.469-2.02h-.467v2.031h-1.167v-6.179m1.167.948c.007.754-.015,1.509.014,2.263.484-.025,1.065.074,1.435-.316a1.289,1.289,0,0,0-.109-1.751,2.336,2.336,0,0,0-1.34-.2" fill="#828285"/>
          <path id="Path_111" data-name="Path 111" d="M233.812,182.843a1.892,1.892,0,0,1,2.8.259,4.325,4.325,0,0,1-.886.645c-.233-.072-.389-.328-.638-.364-.27.01-.583.259-.454.551.583.714,1.347,1.264,1.942,1.972a1.61,1.61,0,0,1-.043,1.958,2.168,2.168,0,0,1-3.374-.317c.321-.207.584-.547.967-.63a1.522,1.522,0,0,0,.842.554.828.828,0,0,0,.755-.568c-.017-.333-.311-.529-.512-.752-.467-.469-.972-.893-1.411-1.385a1.446,1.446,0,0,1,.017-1.921" fill="#828285"/>
          <path id="Path_112" data-name="Path 112" d="M31.756,157.137h4.606v19.725H31.756Z" fill="#828285"/>
          <path id="Path_113" data-name="Path 113" d="M89.986,176.861H85.381V144.489h4.605Z" fill="#828285"/>
          <path id="Path_114" data-name="Path 114" d="M106.714,172.237h11.515v4.624H106.714q-9.212,0-9.211-9.25v-4.624q0-9.249,9.211-9.248h4.606q9.21,0,9.211,9.248v4.624H102.108Q102.108,172.237,106.714,172.237Zm-4.606-9.255h13.818q0-4.624-4.606-4.624h-4.606q-4.6.005-4.606,4.63Z" fill="#828285"/>
          <path id="Path_115" data-name="Path 115" d="M136.707,172.237h11.514v4.624H136.707q-9.21,0-9.212-9.25v-4.624q0-9.249,9.212-9.248h4.606q9.212,0,9.218,9.248v4.624H132.1Q132.1,172.237,136.707,172.237Zm-4.605-9.255h13.816q0-4.624-4.606-4.624h-4.606q-4.606.005-4.605,4.63Z" fill="#828285"/>
          <path id="Path_116" data-name="Path 116" d="M162.255,162.987v13.874h-4.606V162.987q0-9.249,9.218-9.248h4.606q9.212,0,9.211,9.248v13.874h-4.61V162.987q0-4.624-4.606-4.624h-4.606Q162.255,158.363,162.255,162.987Z" fill="#828285"/>
          <path id="Path_117" data-name="Path 117" d="M190.789,145a3.216,3.216,0,1,1-2.647,2.626A3.225,3.225,0,0,1,190.789,145" fill="#828285"/>
          <path id="Path_118" data-name="Path 118" d="M189,157.137H193.6v19.725H189Z" fill="#828285"/>
          <path id="Path_119" data-name="Path 119" d="M72.852,176.861,54.786,162.6a2.729,2.729,0,0,1-.954-1.137,3.611,3.611,0,0,1-.2-1.226A3.172,3.172,0,0,1,53.9,158.9a3.628,3.628,0,0,1,1.154-1.248L72.141,144.46H80.8L59.668,160.282l21.8,16.579Z" fill="#828285"/>
          <path id="Path_120" data-name="Path 120" d="M228.389,176.861,210.323,162.6a2.738,2.738,0,0,1-.955-1.137,3.65,3.65,0,0,1-.2-1.226,3.178,3.178,0,0,1,.266-1.337,3.634,3.634,0,0,1,1.154-1.248l17.089-13.188h8.655L215.2,160.282,237,176.861Z" fill="#3bb44a"/>
          <rect id="Rectangle_5" data-name="Rectangle 5" width="4.704" height="32.401" transform="translate(202.384 144.46)" fill="#828285"/>
          <rect id="Rectangle_6" data-name="Rectangle 6" width="4.704" height="32.401" transform="translate(46.73 144.46)" fill="#828285"/>
        </g>
      </g>
    </g>
    <path id="Color_Overlay" data-name="Color Overlay" d="M53.059,84a1.855,1.855,0,0,1-1.633-1.817c-.014-3.7.009-7.4-.014-11.1-.112-.005-.226-.013-.338-.02-1.521-.007-3.044-.005-4.567,0-1.607,0-3.216,0-4.821-.005A1.781,1.781,0,0,1,40,69.437v-36.8a1.77,1.77,0,0,1,1.693-1.651c.6-.008,1.209-.005,1.813,0,.755,0,1.512.006,2.271-.01a2.123,2.123,0,0,1,1.6-.977h.969a1.023,1.023,0,0,1,.842.906c.013.758.011,1.523,0,2.271a.965.965,0,0,1-.638.889,2.593,2.593,0,0,1-2.714-.821c-.778,0-1.559-.009-2.339,0a1.26,1.26,0,0,0-1.188.879,5.091,5.091,0,0,0-.062,1.212V63.023a1.293,1.293,0,0,0,1.223,1.359,1.07,1.07,0,0,0,.142,0c6.137,0,12.281.011,18.419,0a1.276,1.276,0,0,0,1.256-1.3c0-.024,0-.048,0-.072V34.542a1.258,1.258,0,0,0-1.135-1.281c-.824-.022-1.643-.009-2.463,0a2.305,2.305,0,0,1-.837.683,3.277,3.277,0,0,1-1.571.19.972.972,0,0,1-.928-.937c-.009-.764-.013-1.523,0-2.29a1.011,1.011,0,0,1,.857-.9h1.006a2.2,2.2,0,0,1,1.572.976h3.938a1.707,1.707,0,0,1,1.691,1.728V69.365a1.708,1.708,0,0,1-1.688,1.693q-2.566.009-5.134.005-2.292,0-4.586,0l-.277.016c-.045.522-.026,1.047-.03,1.569v7.717a1.3,1.3,0,0,0,.6,1.172,1.922,1.922,0,0,0,1.1.2c.1,0,.2,0,.3,0H70.96c.077,0,.158,0,.238,0a1.894,1.894,0,0,0,1.133-.222,1.3,1.3,0,0,0,.563-1.15V65.588H71.756V45.863h1.131V42.688a5.849,5.849,0,0,1-3.534-9.642,6.057,6.057,0,0,1,3.86-1.992,5.868,5.868,0,0,1,1.926,11.532c-.009,1.093-.005,2.188-.005,3.277h1.228V65.588H75.139V81.611a2.96,2.96,0,0,1-.169,1.416A1.877,1.877,0,0,1,73.712,84Zm1.747-15.19a1,1,0,0,0,1.05-.919.989.989,0,0,0-.931-1.044h0c-1.32-.014-2.642,0-3.966,0a1.438,1.438,0,0,0-.735.112l0,0a.981.981,0,0,0,.517,1.849C52.091,68.81,53.448,68.81,54.806,68.81ZM70.144,35.784a3.741,3.741,0,1,0,3.173-2.614l0-.006A3.784,3.784,0,0,0,70.144,35.784ZM225.71,77.355c-1.133-1.258-2.273-2.508-3.406-3.77,0,1.211-.014,2.427.011,3.638-.392.022-.784.019-1.18.019V70.771h-.009c.225-.04.349.178.5.31,1.085,1.232,2.217,2.424,3.29,3.66-.008-1.229,0-2.447,0-3.671h1.166v6.489A.53.53,0,0,1,225.71,77.355Zm-8.2,0c-1.13-1.258-2.27-2.508-3.4-3.77-.007,1.217,0,2.439-.007,3.657h-1.167V70.771c.221-.032.35.171.49.306,1.091,1.232,2.218,2.427,3.294,3.664V71.069h1.166v6.489A.558.558,0,0,1,217.507,77.355Zm22.366.111c-.966-2.122-1.877-4.263-2.8-6.4l0,0h1.283c.53,1.237,1.027,2.476,1.584,3.694.466-1.233.977-2.461,1.454-3.69h1.271c-.867,2.129-1.724,4.27-2.614,6.388Zm33.286-1.193c.32-.207.584-.547.967-.63a1.524,1.524,0,0,0,.842.554.83.83,0,0,0,.755-.569c-.017-.332-.311-.529-.513-.751-.466-.469-.972-.893-1.411-1.385a1.448,1.448,0,0,1,.017-1.922h0a1.891,1.891,0,0,1,2.8.259,4.354,4.354,0,0,1-.886.645c-.233-.073-.389-.328-.638-.365-.27.011-.583.259-.454.551.583.715,1.346,1.265,1.941,1.972a1.61,1.61,0,0,1-.042,1.958,1.929,1.929,0,0,1-1.507.668A2.2,2.2,0,0,1,273.159,76.272Zm-42.142.8a3.112,3.112,0,0,1,.282-5.906h-.01a3.27,3.27,0,0,1,2.94.679A3.216,3.216,0,0,1,234.4,76.3a3.093,3.093,0,0,1-2.291.958A3.348,3.348,0,0,1,231.017,77.072Zm-.828-3.081a2.093,2.093,0,0,0,1.921,2.213,2.066,2.066,0,0,0,1.9-2.476,1.99,1.99,0,0,0-2.217-1.568h0A2.113,2.113,0,0,0,230.189,73.992ZM259.2,77.1a3.109,3.109,0,0,1,.193-5.931,3.258,3.258,0,0,1,2.948.688,3.2,3.2,0,0,1,.106,4.5,3.063,3.063,0,0,1-2.227.9A3.419,3.419,0,0,1,259.2,77.1Zm.68-4.937a2.107,2.107,0,0,0-1.591,1.83,1.953,1.953,0,1,0,3.819-.257,2.049,2.049,0,0,0-1.894-1.608A1.567,1.567,0,0,0,259.881,72.16ZM125.07,75.886a3.2,3.2,0,0,1,.436-3.992h.005a3.31,3.31,0,0,1,3.565-.543v1.267c-.428-.105-.751-.468-1.206-.487a2.045,2.045,0,0,0-2.065,2.5,1.967,1.967,0,0,0,2.748,1.353c0-.343-.007-.682-.007-1.025h-1.167V74.02H129.7v2.586a3.269,3.269,0,0,1-1.984.645A3.093,3.093,0,0,1,125.07,75.886ZM101.38,77.251V71.07h3.813v.949h-2.651V73.6h2.166v.948H102.54V76.3c.325,0,.652,0,.98,0,.558,0,1.119-.008,1.675.014-.009.31-.011.625-.011.937Zm164.878,0V71.07c.316.015.636.007.956,0a7.169,7.169,0,0,1,1.727.1c1.67.477,1.742,3.236.178,3.9.527.723,1.085,1.433,1.59,2.173-.454,0-.9.007-1.348,0-.466-.7-.984-1.341-1.47-2.02h-.467v2.03Zm1.181-2.967c.483-.025,1.064.073,1.435-.317a1.29,1.29,0,0,0-.109-1.75,1.71,1.71,0,0,0-1.051-.2c-.1,0-.194,0-.289,0C267.431,72.773,267.41,73.527,267.439,74.282Zm-67.669.39H197.6v2.567h-1.167l-.006-6.169h1.167v2.658c.725,0,1.451.007,2.182,0-.011-.882,0-1.769,0-2.654h1.158v6.169c-.386,0-.773,0-1.156.007C199.767,76.393,199.777,75.536,199.769,74.672Zm-20.385,1.265h-1.9c-.174.435-.342.864-.509,1.3-.431,0-.856.011-1.283-.015.885-2.124,1.75-4.254,2.638-6.376h0l0,0,0,0c.059,0,.168.011.222.014.871,2.121,1.757,4.244,2.614,6.376-.421.007-.838.007-1.256.014C179.719,76.812,179.559,76.379,179.384,75.938ZM179,75a13.3,13.3,0,0,0-.57-1.428c-.193.468-.378.95-.566,1.428.126,0,.251,0,.377,0C178.491,74.993,178.744,75,179,75Zm-46.358,2.245V71.07H133.8c0,2.06.011,4.123-.007,6.179C133.412,77.243,133.025,77.239,132.639,77.243Zm-44.493,0c-.01-1.742.007-3.486-.008-5.227-.544.006-1.093,0-1.633,0V71.07h4.444v.949H89.312c0,1.742.007,3.485-.008,5.231C88.92,77.243,88.535,77.243,88.146,77.243Zm81.051,0V71.07h3.811v.949h-2.646V73.6h2.171v.948h-2.171V76.3h2.646v.944Zm-55.472-.006c-.3-.006-.589-.013-.876,0V71.07h0c.279.012.564.005.85,0a4.435,4.435,0,0,1,2.417.4,3.03,3.03,0,0,1,1.358,2.905,2.874,2.874,0,0,1-1.464,2.538,3.874,3.874,0,0,1-1.8.336C114.05,77.247,113.887,77.244,113.725,77.241Zm.287-5.124h0V76.21a2.123,2.123,0,0,0,1.936-.758,2.44,2.44,0,0,0-.1-2.722,2.042,2.042,0,0,0-1.622-.619C114.158,72.111,114.084,72.113,114.012,72.117ZM247.2,75.938H245.3c-.167.435-.341.864-.506,1.3-.428,0-.859.011-1.283-.015.878-2.128,1.75-4.254,2.639-6.376v0a2.115,2.115,0,0,1,.225.023c.868,2.125,1.75,4.236,2.61,6.368-.421.007-.838.007-1.255.011C247.536,76.812,247.375,76.379,247.2,75.938ZM245.671,75c.381,0,.762,0,1.15-.007-.185-.469-.371-.948-.555-1.421C246.033,74.027,245.866,74.519,245.671,75ZM183.82,77.246c-.007-2.06,0-4.116,0-6.172l0,0h1.167V76.3h2.479c.007.314.007.63.007.948Zm68.305-5.234c-.544.01-1.085.007-1.633.007V71.07h4.446v.949H253.3c0,1.734-.014,3.473.009,5.21-.4.013-.788.013-1.176.013C252.125,75.5,252.148,73.757,252.125,72.012Zm-43.465,5.231V71.07h1.159c0,2.056.007,4.119,0,6.172Zm-17.915,0V72.022c-.544-.006-1.093,0-1.633,0V71.07h4.441v.949h-1.634c0,1.742.009,3.485-.006,5.224Zm-40.077,0c-.011-2.059,0-4.116,0-6.172h1.164c.014,1.75-.019,3.493.017,5.239.55-.02,1.1-.016,1.647-.014.274,0,.548,0,.822,0v.944Zm-4.436-1.305h-1.9c-.172.435-.342.864-.509,1.3-.428,0-.859.011-1.283-.019.893-2.12,1.75-4.251,2.639-6.372h-.005l.007,0,0,0c.077.005.153.014.228.026.864,2.125,1.751,4.235,2.607,6.365-.421.007-.839.007-1.26.007C146.571,76.812,146.4,76.379,146.233,75.938Zm-1.52-.94c.382,0,.762,0,1.148-.007-.185-.469-.367-.948-.552-1.421C145.065,74.027,144.912,74.519,144.713,75Zm-6.52,2.245c0-1.742.007-3.486,0-5.227-.549.006-1.09,0-1.633,0V71.07h-.011l.011,0v0h4.433v.949h-1.633v5.224Zm-17.655,0q-.011-3.089-.007-6.172H121.7v6.172Zm-23.386,0c.007-.857,0-1.709,0-2.567H94.986v2.567H93.819l0-6.172h1.166v2.658c.727,0,1.456.019,2.183-.011-.018-.878,0-1.764-.007-2.647.385,0,.773,0,1.158.007v6.165Zm67.7,0c.011-.856,0-1.709,0-2.567h-2.171v2.567H161.51l0-6.169h1.165v2.658h2.175V71.07h1.167v6.169Zm65.639-2.867a1.629,1.629,0,1,1,1.608,1.373A1.64,1.64,0,0,1,230.486,74.372Zm35.77-3.3h0Zm-57.6,0h.007Zm-39.46,0h0Zm-18.527,0h0Zm-18.027,0h0Zm113.509-.229v0Zm22.241-5.253L250.322,51.323a2.739,2.739,0,0,1-.955-1.137,3.638,3.638,0,0,1-.2-1.226,3.177,3.177,0,0,1,.266-1.337,3.632,3.632,0,0,1,1.155-1.247l17.089-13.189h8.655L255.2,49.009,277,65.588Zm-26,0v-32.4h4.7v32.4Zm-13.385,0V45.863H233.6V65.588Zm-12.926,0V51.714q0-4.624-4.605-4.624h-4.606q-4.608,0-4.607,4.624V65.588h-4.606V51.714q0-9.249,9.218-9.248h4.606q9.212,0,9.211,9.248V65.588Zm-39.367,0q-9.21,0-9.212-9.249V51.714q0-9.249,9.212-9.248h4.606q9.212,0,9.217,9.248v4.624H172.1q0,4.626,4.6,4.625h11.515v4.624Zm-4.6-13.88h13.816q0-4.624-4.605-4.623h-4.606Q172.1,47.09,172.1,51.708Zm-25.388,13.88q-9.212,0-9.212-9.249V51.714q0-9.249,9.212-9.248h4.606q9.21,0,9.211,9.248v4.624H142.108q0,4.626,4.605,4.625h11.516v4.624Zm-4.605-13.88h13.818q0-4.624-4.606-4.623h-4.606Q142.111,47.09,142.108,51.708Zm-16.727,13.88V33.216h4.605V65.588Zm-12.53,0L94.785,51.323a2.722,2.722,0,0,1-.954-1.137,3.573,3.573,0,0,1-.2-1.226,3.164,3.164,0,0,1,.266-1.337,3.628,3.628,0,0,1,1.154-1.247l17.09-13.189H120.8L99.667,49.009l21.8,16.579Zm-26.122,0v-32.4h4.7v32.4ZM229.191,39.324a3.217,3.217,0,0,1,1.6-5.594l0,0a3.224,3.224,0,0,1,3.683,2.7,3.179,3.179,0,0,1,.038.6,3.191,3.191,0,0,1-3.207,3.084A3.122,3.122,0,0,1,229.191,39.324Zm-157.583,0a3.21,3.21,0,1,1,5.28-2.894,3.189,3.189,0,0,1,.037.6,3.192,3.192,0,0,1-3.206,3.084A3.124,3.124,0,0,1,71.609,39.324Z" fill="#fff"/>
  </g>
</svg>
