<svg xmlns="http://www.w3.org/2000/svg" width="250.911" height="57.677" viewBox="0 0 250.911 57.677">
  <g id="Group_6" data-name="Group 6" transform="translate(-1392.115 -20.465)">
    <g id="Group_4" data-name="Group 4">
      <path id="Path_6" data-name="Path 6" d="M1438.949,44.127a9.179,9.179,0,0,0-7.509,3.893,9.213,9.213,0,0,0-16.735,5.327V77.608h8.571V53.566a2.053,2.053,0,1,1,4.1,0V77.608h8.111V53.566a2.048,2.048,0,1,1,4.1,0V77.608h8.574V53.347A9.213,9.213,0,0,0,1438.949,44.127Z" fill="#fff"/>
      <path id="Path_7" data-name="Path 7" d="M1427.515,26.91a1.778,1.778,0,0,0,1.791-3.071A24.838,24.838,0,0,0,1392.128,42.5a1.777,1.777,0,1,0,3.531.4,21.287,21.287,0,0,1,31.856-15.989Z" fill="#fff"/>
      <path id="Path_8" data-name="Path 8" d="M1419.753,39.359a1.78,1.78,0,0,0,1.581-3.19,10.208,10.208,0,0,0-14.627,7.724,1.778,1.778,0,1,0,3.523.487,6.639,6.639,0,0,1,9.523-5.021Z" fill="#fff"/>
      <path id="Path_9" data-name="Path 9" d="M1464.225,53.328a12.14,12.14,0,1,0,12.147,12.144A12.138,12.138,0,0,0,1464.225,53.328Zm0,16.344a4.2,4.2,0,1,1,4.208-4.2A4.208,4.208,0,0,1,1464.225,69.672Z" fill="#fff"/>
      <path id="Path_10" data-name="Path 10" d="M1478.565,66.341H1489.2V60.449h-10.639Z" fill="#fff"/>
      <path id="Path_11" data-name="Path 11" d="M1508.183,77.608h8.226V53.885h-8.226Z" fill="#fff"/>
      <path id="Path_12" data-name="Path 12" d="M1512.3,43.225a4.115,4.115,0,1,0,4.111,4.119A4.118,4.118,0,0,0,1512.3,43.225Z" fill="#fff"/>
      <path id="Path_13" data-name="Path 13" d="M1538.08,45.651h-15.128V77.608h8.879V53.864h6.914a7.165,7.165,0,0,1,0,14.329H1533.8v9.415h4.277a15.979,15.979,0,1,0,0-31.957Z" fill="#fff"/>
      <path id="Path_14" data-name="Path 14" d="M1491.5,56.555V77.608h8.544V67.876h4.152V58.487h-4.152V56.555a4.9,4.9,0,0,1,4.152-4.863V43.113a13.456,13.456,0,0,0-12.7,13.442Z" fill="#fff"/>
      <path id="Path_15" data-name="Path 15" d="M1558.443,42.467a4.108,4.108,0,0,0-1.647-1.628,4.447,4.447,0,0,0-4.367,0,4.115,4.115,0,0,0-1.647,1.628,4.514,4.514,0,0,0-.6,2.23,4.431,4.431,0,0,0,.587,2.2,4.156,4.156,0,0,0,1.635,1.636,4.434,4.434,0,0,0,4.413,0,4.182,4.182,0,0,0,1.635-1.636,4.453,4.453,0,0,0,.588-2.2A4.5,4.5,0,0,0,1558.443,42.467Zm-.74,4a3.427,3.427,0,0,1-1.313,1.32,3.563,3.563,0,0,1-3.541,0,3.435,3.435,0,0,1-1.316-1.32,3.568,3.568,0,0,1,.011-3.569,3.32,3.32,0,0,1,1.323-1.312,3.619,3.619,0,0,1,3.506,0A3.339,3.339,0,0,1,1557.7,42.9a3.63,3.63,0,0,1,.482,1.8A3.574,3.574,0,0,1,1557.7,46.47Z" fill="#fff"/>
      <path id="Path_16" data-name="Path 16" d="M1555.8,45.545a2.637,2.637,0,0,0-.32-.365,1.2,1.2,0,0,0-.327-.176,1.488,1.488,0,0,0,.932-.448,1.236,1.236,0,0,0,.332-.866,1.325,1.325,0,0,0-.174-.673,1.156,1.156,0,0,0-.443-.453,1.879,1.879,0,0,0-.737-.188q-.161-.009-1.5-.01h-.955v4.7h.955V45.135h.249a1.042,1.042,0,0,1,.658.2,3.1,3.1,0,0,1,.658.967l.4.762h1.176l-.554-.947C1555.952,45.782,1555.836,45.588,1555.8,45.545Zm-.822-1.216a4.684,4.684,0,0,1-1.029.063h-.387V43.113h.387a4.918,4.918,0,0,1,1.021.063.6.6,0,0,1,.32.22.55.55,0,0,1,.115.349.6.6,0,0,1-.115.365A.615.615,0,0,1,1554.982,44.329Z" fill="#fff"/>
    </g>
    <g id="Group_5" data-name="Group 5">
      <path id="Path_17" data-name="Path 17" d="M1569.334,77.7h-5.041V52.86h5.041V63.784l3.362-.366,4.092-10.558h5.736l-5.407,12.458L1582.67,77.7h-5.808l-4.166-9.9-3.362.365Z" fill="#fff"/>
      <path id="Path_18" data-name="Path 18" d="M1585.739,77.7V52.129h4.9V77.7Z" fill="#fff"/>
      <path id="Path_19" data-name="Path 19" d="M1609.377,65.136v7.6a2.9,2.9,0,0,0,.292,1.224,1.356,1.356,0,0,0,.913.493l-.145,3.69a13.9,13.9,0,0,1-2.979-.255,6.7,6.7,0,0,1-2.246-1.023,12.169,12.169,0,0,1-5.371,1.278q-5.662,0-5.663-5.991,0-2.923,1.571-4.147a8.814,8.814,0,0,1,4.823-1.444l3.909-.292V65.136a1.932,1.932,0,0,0-.511-1.553,2.589,2.589,0,0,0-1.644-.421l-6.87.293-.145-3.4a28.442,28.442,0,0,1,7.434-1.06q3.526,0,5.08,1.462T1609.377,65.136Zm-8.22,4.822a1.982,1.982,0,0,0-2.046,2.193q0,2.01,1.79,2.009a11.842,11.842,0,0,0,3.032-.438l.548-.146v-3.91Z" fill="#fff"/>
      <path id="Path_20" data-name="Path 20" d="M1624.174,63.6h-4.494v7.49a15.1,15.1,0,0,0,.055,1.553,1.259,1.259,0,0,0,.4.785,1.522,1.522,0,0,0,1.077.329l2.778-.073.218,3.91a18.608,18.608,0,0,1-3.726.547q-3.289,0-4.494-1.48t-1.2-5.461V63.6h-2.157V59.436h2.157V54.358h4.9v5.078h4.494Z" fill="#fff"/>
      <path id="Path_21" data-name="Path 21" d="M1638.13,59.436h4.9V77.7h-4.86V76.681a9.753,9.753,0,0,1-4.567,1.461q-3.8,0-5.115-2.1t-1.315-7.032V59.436h4.9v9.645a10.367,10.367,0,0,0,.438,3.691q.438.985,2.119.986a8.89,8.89,0,0,0,3.033-.512l.474-.146Z" fill="#fff"/>
    </g>
  </g>
</svg>
