<svg xmlns="http://www.w3.org/2000/svg" width="263.175" height="64.11" viewBox="0 0 263.175 64.11">
  <g id="Group_10" data-name="Group 10" transform="translate(-1392.116 -101.469)">
    <g id="Group_8" data-name="Group 8">
      <g id="Group_7" data-name="Group 7">
        <path id="Path_22" data-name="Path 22" d="M1505.158,124.272l-7.762,3.8,2.663,5.3q2.067,4.363,2.068,5.411,0,1.673-4.617,1.672l-2.408-.057-1.388-.113v9.462h7.337a9.074,9.074,0,0,0,6.288-2.153,8.671,8.671,0,0,0,2.762,1.6,9.727,9.727,0,0,0,3.3.552h.143v-9.312c-1.165-1.98-.539-.786-1.219-2.02Zm25.1,30.031a3.727,3.727,0,0,0-2.55,1.048,3.6,3.6,0,0,0-1.1,2.635,3.5,3.5,0,0,0,1.09,2.578,3.531,3.531,0,0,0,2.564,1.077,3.755,3.755,0,0,0,3.626-3.655,3.576,3.576,0,0,0-1.048-2.635A3.5,3.5,0,0,0,1530.256,154.3Zm-9.433-.227a3.468,3.468,0,0,0-2.521,1.1,3.6,3.6,0,0,0-1.1,2.635,3.553,3.553,0,0,0,1.091,2.521,3.417,3.417,0,0,0,2.535,1.134,4.049,4.049,0,0,0,2.606-1.1,3.485,3.485,0,0,0,1.077-2.55,3.629,3.629,0,0,0-1.077-2.649A3.527,3.527,0,0,0,1520.823,154.076Zm26.967-33.487a3.764,3.764,0,0,0,2.706-1.148,3.6,3.6,0,0,0,1.175-2.649,3.764,3.764,0,0,0-1.218-2.719,3.61,3.61,0,0,0-5.41,0,3.565,3.565,0,0,0-1.19,2.719,3.654,3.654,0,0,0,1.19,2.692A3.984,3.984,0,0,0,1547.79,120.589Zm.114,2.861a11.393,11.393,0,0,0-11.189,11.219,12.108,12.108,0,0,0,1.416,5.61h-2.55q-3.767,0-4.928-.623t-1.162-2.862l.2-3.513.17-5.411h-8.611q0,.793.113,2.663t.114,2.918l.169,3.513q0,2.183-1.175,2.748a13.522,13.522,0,0,1-5.17.717v9.312h4.363a8.6,8.6,0,0,0,5.948-2.153,8.476,8.476,0,0,0,6.091,2.153h8.894q8.159,0,13.583-3.683t5.425-11.389a10.505,10.505,0,0,0-3.5-7.918A11.567,11.567,0,0,0,1547.9,123.45Zm2.747,14.449a3.618,3.618,0,0,1-2.492.935,3.419,3.419,0,0,1-2.479-.977,3.243,3.243,0,0,1-1.006-2.423,3.569,3.569,0,0,1,1.049-2.465,3.433,3.433,0,0,1,2.436-.991,3.362,3.362,0,0,1,2.436.963,3.321,3.321,0,0,1,.991,2.493A3.58,3.58,0,0,1,1550.651,137.9Zm64.835-6.884a11.719,11.719,0,0,0-7.393,2.436l-4.25,4.448a6.305,6.305,0,0,1-4.645,2.38h-.312a17.2,17.2,0,0,0-3-10.086,9.945,9.945,0,0,0-8.7-4.306,12.043,12.043,0,0,0-11.982,11.955,11.2,11.2,0,0,0,3.6,8.443,12.111,12.111,0,0,0,8.668,3.428q-.622.878-6.2,4.448l-6.714,4.08,4.618,7.338,7.223-4.222a38.631,38.631,0,0,0,6.912-5.1,18.636,18.636,0,0,0,4.39-6.517h2.408v-.056a6.784,6.784,0,0,0,3.23-1.1,9.663,9.663,0,0,0,3.81,5.553,19.519,19.519,0,0,0,4.475,2.309,12.962,12.962,0,0,0,13.045-3.258,12.947,12.947,0,0,0-9.178-22.169Zm-25.041,9.547h-3.683a3.235,3.235,0,0,1-2.422-1.048,3.349,3.349,0,0,1-1.005-2.38,3.223,3.223,0,0,1,1.034-2.337,3.286,3.286,0,0,1,2.393-1.034,3.383,3.383,0,0,1,2.974,1.87,7.361,7.361,0,0,1,.7,1.714,7.559,7.559,0,0,1,.212,1.855A6.02,6.02,0,0,1,1590.445,140.562Zm27.689,6.035a3.54,3.54,0,0,1-2.648,1.133,4.1,4.1,0,0,1-2.691-1.048,3.75,3.75,0,0,1,.042-5.412,3.825,3.825,0,0,1,2.649-1.076,3.6,3.6,0,0,1,2.663,1.091,3.7,3.7,0,0,1,1.076,2.705A3.652,3.652,0,0,1,1618.134,146.6Zm-56.187-6.1h10.959v-6.809h-10.959Zm-63.81-18.737a5.249,5.249,0,0,0-.013-5.236,4.863,4.863,0,0,0-1.944-1.929,5.29,5.29,0,0,0-5.164,0,4.853,4.853,0,0,0-1.943,1.929,5.246,5.246,0,0,0-.014,5.236,4.936,4.936,0,0,0,1.933,1.933,5.246,5.246,0,0,0,5.212,0A4.928,4.928,0,0,0,1498.137,121.763Zm-4.532,1.608a4.2,4.2,0,0,1-2.09-.56,3.97,3.97,0,0,1-1.554-1.557,4.218,4.218,0,0,1,.014-4.214,3.918,3.918,0,0,1,1.56-1.551,4.243,4.243,0,0,1,4.143,0,3.909,3.909,0,0,1,1.564,1.551,4.208,4.208,0,0,1,.011,4.214,4.01,4.01,0,0,1-1.554,1.557A4.2,4.2,0,0,1,1493.6,123.371Zm1.4-3.21a2.784,2.784,0,0,0-.376-.427,1.388,1.388,0,0,0-.389-.208,1.788,1.788,0,0,0,1.1-.53,1.466,1.466,0,0,0,.392-1.028,1.552,1.552,0,0,0-.208-.8,1.394,1.394,0,0,0-.519-.533,2.2,2.2,0,0,0-.871-.222q-.192-.014-1.776-.014h-1.127v5.553h1.127v-2.281h.293a1.243,1.243,0,0,1,.779.236,3.743,3.743,0,0,1,.779,1.144l.465.9h1.393l-.656-1.12C1495.183,120.441,1495.046,120.215,1495.005,120.161Zm-.973-1.434a5.571,5.571,0,0,1-1.212.075h-.458v-1.517h.458a5.4,5.4,0,0,1,1.209.079.735.735,0,0,1,.379.259.687.687,0,0,1,.133.414.711.711,0,0,1-.137.427A.721.721,0,0,1,1494.032,118.727Zm161.244,10.347a31.047,31.047,0,0,0-46.5-23.378,2.225,2.225,0,1,0,2.236,3.848,26.611,26.611,0,0,1,39.841,20.026,2.223,2.223,0,1,0,4.419-.5Zm-30.86-9.258a12.7,12.7,0,0,0-5.667,1.33,2.228,2.228,0,0,0,1.976,3.995,8.2,8.2,0,0,1,3.691-.868,8.3,8.3,0,0,1,8.215,7.156,2.225,2.225,0,1,0,4.408-.612A12.751,12.751,0,0,0,1624.416,119.816Z" fill="#fff"/>
      </g>
    </g>
    <g id="Group_9" data-name="Group 9">
      <path id="Path_23" data-name="Path 23" d="M1415.67,148.964H1410.3q-.975,6.711-9.273,6.711h-.611V151.12h.488c2.2,0,3.5-.813,3.945-2.4a13.984,13.984,0,0,1-3.5.245,8.943,8.943,0,0,1-9.234-9.277c0-5.49,3.825-9.193,9.234-9.193,5.207,0,9.032,3.906,9.032,9.315v3.7h5.288Zm-10.983-5.452v-3.947c0-2.4-1.424-3.944-3.5-3.944-2.156,0-3.294,1.668-3.294,3.822,0,2.321,1.382,4.069,3.5,4.069Z" fill="#fff"/>
      <path id="Path_24" data-name="Path 24" d="M1418.675,127.444h-5.046v-4.68h5.046Zm8.055,13.667a8.146,8.146,0,0,1-1.79,5.371,6.762,6.762,0,0,1-5.573,2.482h-4.841v-5.452h3.619c1.913,0,2.89-1.343,2.89-3.986v-8.99h5.695Zm-.366-13.667h-5.085v-4.68h5.085Z" fill="#fff"/>
      <path id="Path_25" data-name="Path 25" d="M1457.764,148.964H1430.1v-5.452h6.1l-5.124-18.022h6.021l5,18.022h.531a2.609,2.609,0,0,0,2.645-1.79,5.705,5.705,0,0,0,.244-2.115V122.764h5.654V139.4a12.29,12.29,0,0,1-.649,4.108h7.238Z" fill="#fff"/>
      <path id="Path_26" data-name="Path 26" d="M1484.366,148.964H1454.75v-5.452h23.431c-.571-4.432-3.947-7.769-8.257-7.769h-10.253l8.138-12.979h6.75l-5.123,7.73h3.13c7.772.814,11.8,6.795,11.8,16.355Z" fill="#fff"/>
    </g>
  </g>
</svg>
