<svg xmlns="http://www.w3.org/2000/svg" width="28.986" height="49.006" viewBox="0 0 28.986 49.006">
  <path id="Shape_225" data-name="Shape 225" d="M385,5966.01a5.981,5.981,0,0,1-6-5.943v-37.12a5.98,5.98,0,0,1,6-5.943H401.98a5.98,5.98,0,0,1,6,5.943v37.12a5.981,5.981,0,0,1-6,5.943Zm-2.363-5.943A2.352,2.352,0,0,0,385,5962.4H401.98a2.351,2.351,0,0,0,2.361-2.337V5957.6h-21.7Zm0-11.255V5954h21.7v-5.07l-1.451,0-.632,2.095c-.007.025-.016.048-.024.07s-.015.043-.024.066a1.332,1.332,0,0,1-.063.146.3.3,0,0,1-.016.03c-.019.038-.04.076-.064.114l-.028.045c-.021.032-.043.063-.066.093l-.033.043-.082.1a.275.275,0,0,0-.028.03,1.911,1.911,0,0,1-.249.214l-.049.032c-.025.018-.051.034-.076.049s-.045.025-.067.039-.042.022-.064.033l-.075.035-.064.027c-.025.009-.051.02-.076.027l-.072.024a.552.552,0,0,1-.07.02c-.03.009-.06.013-.091.021l-.054.01-.135.018h-.013c-.052,0-.1.006-.157.006a1.754,1.754,0,0,1-.175-.009.317.317,0,0,1-.034,0c-.051-.006-.1-.012-.154-.022a.135.135,0,0,0-.021,0c-.045-.011-.091-.021-.136-.035l-.019-.007c-.031-.009-.064-.021-.1-.033s-.055-.021-.082-.033-.057-.025-.085-.039-.058-.028-.087-.043l-.072-.043c-.03-.02-.061-.037-.09-.06s-.042-.029-.061-.043-.063-.051-.093-.078a.421.421,0,0,1-.049-.045c-.033-.03-.064-.063-.094-.1-.009-.01-.019-.018-.028-.03l-4.288-4.917-4.059,5.2a.184.184,0,0,0-.022.025c-.031.038-.064.077-.1.111-.015.017-.031.033-.046.048s-.061.057-.094.084-.04.036-.061.051-.058.042-.088.063-.051.036-.078.051l-.01.008c-.045.027-.09.049-.135.072l-.04.02a1.846,1.846,0,0,1-.352.12c-.006,0-.012,0-.016.006-.063.012-.126.022-.189.03l-.015,0a1.7,1.7,0,0,1-.192.012c-.045,0-.09,0-.135-.006-.015,0-.03,0-.045,0l-.084-.011-.057-.009c-.024,0-.049-.011-.073-.014s-.039-.009-.058-.015c-.039-.009-.078-.021-.117-.031l-.054-.021a.74.74,0,0,1-.073-.027l-.051-.022a.879.879,0,0,1-.084-.041.3.3,0,0,1-.036-.017,1.8,1.8,0,0,1-.243-.157l-.006,0s0,0-.007-.007a1.615,1.615,0,0,1-.246-.23.29.29,0,0,1-.028-.032c-.028-.033-.055-.067-.082-.1-.01-.015-.021-.03-.03-.045a.806.806,0,0,1-.051-.078l-1.827-2.994Zm4.348-3.619c.013,0,.025,0,.039,0a.838.838,0,0,1,.1.006.781.781,0,0,1,.082.007c.028,0,.058.008.087.012l.094.018.073.021a.741.741,0,0,1,.1.029l.07.024c.031.013.061.024.093.039a.684.684,0,0,1,.072.034c.027.014.054.025.081.042a.817.817,0,0,1,.078.045l.067.043c.028.02.054.039.081.06l.057.047c.027.021.051.045.076.067s.037.034.054.052l.064.069c.019.022.039.046.057.07s.033.042.049.063l.06.087a.321.321,0,0,0,.022.033l.985,1.617,3.79-4.85c.039-.049.081-.1.126-.146a1.836,1.836,0,0,1,.433-.333c.018-.009.036-.018.055-.026s.067-.034.1-.051.072-.027.106-.042.039-.013.058-.02c.039-.013.078-.022.118-.034.016,0,.033-.007.051-.012.036-.007.075-.015.112-.02l.061-.01c.031,0,.063-.006.1-.007s.054,0,.081,0,.049,0,.076,0a1,1,0,0,1,.1,0l.057.006c.039,0,.079.007.118.013a.338.338,0,0,0,.046.011c.042.007.084.017.126.027l.052.017c.037.012.076.022.114.036l.1.043c.021.011.042.017.061.027a1.781,1.781,0,0,1,.451.31c.046.045.091.09.133.139l3.562,4.086.025-.083a2.08,2.08,0,0,1,1.828-1.428l2.768-.008v-16.558h-21.7v16.44l4.342-.015Zm-4.348-22.246v2.217h21.7v-2.217a2.352,2.352,0,0,0-2.361-2.339H385A2.353,2.353,0,0,0,382.64,5922.947Zm9,37.012a1.85,1.85,0,1,1,1.851,1.83A1.84,1.84,0,0,1,391.64,5959.959Zm.03-21.144v-1.661h-1.68a1.8,1.8,0,1,1,0-3.605h1.68v-1.662a1.821,1.821,0,0,1,3.641,0v1.662h1.681a1.8,1.8,0,1,1,0,3.605h-1.681v1.661a1.821,1.821,0,0,1-3.641,0Z" transform="translate(-378.998 -5917.004)" fill="#0b9fca"/>
</svg>
