<svg xmlns="http://www.w3.org/2000/svg" width="100.888" height="87.13" viewBox="0 0 100.888 87.13">
  <g id="Vector_Smart_Object" data-name="Vector Smart Object" transform="translate(-1634 -3876)">
    <g id="Vector_Smart_Object-2" data-name="Vector Smart Object" transform="translate(1617.886 3876)">
      <g id="Group_27" data-name="Group 27">
        <path id="Path_139" data-name="Path 139" d="M16.114,61.991q.616,2.374,1.233,4.749c.65,2.494,1.338,4.979,1.939,7.485a4.117,4.117,0,0,0,2.76,3.04,6.051,6.051,0,0,0,4.448.226c1.553-.591,1.856-1.93.644-3.077A9.746,9.746,0,0,0,25.32,73.2c-.529-.31-1.1-.542-1.653-.819A3.982,3.982,0,0,1,21.343,68.9a16.009,16.009,0,0,1,2.074-9.539c2.062-3.654,3.845-7.466,5.757-11.205,1.61-3.147,3.206-6.3,5.125-9.28a6.041,6.041,0,0,1,5.52-2.915c.941.01,1.884.021,2.821.094,2.166.168,4.329.375,6.493.566.1.009.2.028.343.049.075,1.01.123,2.015.228,3.013.186,1.765.3,3.548.638,5.285a5.774,5.774,0,0,0,6.238,4.493,5.045,5.045,0,0,0,4.067-5.587,7.346,7.346,0,0,0-4.3-5.681c-1.219-.569-2.435-1.147-3.712-1.749a4.811,4.811,0,0,1,4-.53,4.313,4.313,0,0,1,1.685,1.008,9.812,9.812,0,0,1,2.991,5.151,13.632,13.632,0,0,1,.041,3.309c-.252,3.185-.6,6.363-.864,9.548-.316,3.747-.569,7.5-.893,11.245-.279,3.217-.129,1.347-.435,4.562-.034.353,0,.711,0,1.073.436.193.752.088.859-.374a20.419,20.419,0,0,0,.508-2.5c.619-6.018.715-6.957,1.31-12.977.36-3.639.705-7.28,1.067-10.92a9.539,9.539,0,0,0-4.944-9.661,5.8,5.8,0,0,0-3.889-.8,2.109,2.109,0,0,0-.677.222,7.961,7.961,0,0,1-5.469.761c-2.133-.3-4.266-.6-6.409-.817-4.2-.415-7.31,1.346-9.5,4.879a27.877,27.877,0,0,0-2.481,5.331A61.729,61.729,0,0,1,24.04,55.991a28.911,28.911,0,0,0-2.936,6.02,17.607,17.607,0,0,0-.417,8.566A2.552,2.552,0,0,0,21.852,72.2c1.06.751,2.139,1.474,3.2,2.22.462.324.911.667,1.349,1.023a.443.443,0,0,1,.152.367c-.05.155-.2.386-.318.395a27.06,27.06,0,0,1-3.114.138,2.408,2.408,0,0,1-1.276-.559,6.482,6.482,0,0,1-2.216-3.669c-.787-3.267-1.484-6.556-2.18-9.843a3.51,3.51,0,0,1,1.066-3.229,9.993,9.993,0,0,0,2.657-8.4,29,29,0,0,1,1.8-15.086A11.571,11.571,0,0,1,23.6,34.27c1.72-2.912,2.74-6.136,4.133-9.193a23.573,23.573,0,0,1,1.53-2.951A7.818,7.818,0,0,1,39.8,19.448a12.035,12.035,0,0,0,1.665.784,1.937,1.937,0,0,0,2.521-.874c.244-.369.444-.768.661-1.155.822-1.476,1.482-1.8,3.149-1.516a10.714,10.714,0,0,1,6.9,4.431,36.015,36.015,0,0,1,3.246,5.918c1.31,2.646,2.594,5.309,4,7.9a8.472,8.472,0,0,0,4.594,4.2,7.792,7.792,0,0,0,6.873-.516,8.146,8.146,0,0,0,3.432-4.82,14.179,14.179,0,0,0-.408-9.057c-.674-1.986-1.509-3.916-2.236-5.884A8.564,8.564,0,0,1,73.578,15a1.4,1.4,0,0,1,1.232-1.42c.861-.218,1.727-.415,2.592-.621a8.119,8.119,0,0,0,2.771-1.166,2.947,2.947,0,0,1,.726-.375,1.945,1.945,0,0,1,2.108.33c.21.2.444.366.679.557.49-.456.957-.875,1.4-1.315a1.485,1.485,0,0,0,.407-.579A3.234,3.234,0,0,0,85.53,9.6c-.3.075-.607.138-.9.235-.078.026-.119.161-.179.243-.483.668-.655.725-1.226.152a1.808,1.808,0,0,0-2.307-.338,29.1,29.1,0,0,1-5.893,2.179c-1.69.525-2.567,1.967-2.613,4.049a11.239,11.239,0,0,0,.89,3.712c.721,2.222,1.529,4.425,2.087,6.689a11.753,11.753,0,0,1-.824,8.437,6.707,6.707,0,0,1-3.615,3.395,4.927,4.927,0,0,1-3.789-.3,7.862,7.862,0,0,1-4.112-3.823c-1.875-3.778-3.75-7.556-5.685-11.3a14.105,14.105,0,0,0-4.793-5.578,12.452,12.452,0,0,0-5.542-1.841,2.584,2.584,0,0,0-2.527,1.15c-.376.529-.706,1.09-1.081,1.62-.792,1.12-1.453,1.242-2.518.385a6.372,6.372,0,0,0-4.653-1.688,10.131,10.131,0,0,0-8.506,5.4,95.356,95.356,0,0,0-6.457,14.819,30.215,30.215,0,0,0-1.214,10.278c.049,1.843.122,3.692.026,5.53a7.109,7.109,0,0,1-2.225,4.874,6.889,6.889,0,0,0-1.76,2.474ZM51.678,37.474c1.771.785,3.505,1.5,5.191,2.32a4.033,4.033,0,0,1,2.085,2.424,5.613,5.613,0,0,1-.454,4.5,2.175,2.175,0,0,1-1.327,1.124,4.371,4.371,0,0,1-5.25-2.122A9.222,9.222,0,0,1,51.678,37.474Z" fill="#5ab458"/>
        <path id="Path_140" data-name="Path 140" d="M70.752.633a10.3,10.3,0,0,0-.747,1.931,11.686,11.686,0,0,0,.04,4.633c.158.7.429,1.423,1.241,1.522.835.1,1.264-.558,1.612-1.2.182-.339.306-.71.457-1.066L73.2,6.335l-1.54,1.651a1.543,1.543,0,0,1-1.051-1.542,14.5,14.5,0,0,0-.241-2.288,2,2,0,0,1,.6-1.744c.1.147.211.233.229.335.163.933.973,1.457,1.4,2.22a.56.56,0,0,0,.468.139c.471-.073.934-.2,1.4-.3a2.188,2.188,0,0,1,2.183.6c1.521,1.744,3.593,1.954,5.669,2.2a9.778,9.778,0,0,0,1.021.093,1.734,1.734,0,0,1,1.669.976c.077.149.291.228.442.339a1.983,1.983,0,0,0,.268-.519,1.78,1.78,0,0,0-1.254-1.9c-1.141-.34-2.316-.565-3.479-.828-.533-.12-1.072-.21-1.607-.32a3.816,3.816,0,0,1-1.991-1.087,2.856,2.856,0,0,0-2.225-1.2,17.876,17.876,0,0,0-2.006.387l-.156.032c-.508-.625-.98-1.171-1.41-1.748-.28-.377-.5-.8-.742-1.2Z" fill="#5ab458"/>
        <g id="Group_25" data-name="Group 25">
          <path id="Path_141" data-name="Path 141" d="M116.99,68.142a28.267,28.267,0,0,0-.159-3.373,5.728,5.728,0,0,0-5.229-5.324,25.375,25.375,0,0,0-3.591-.255H97.079V63H108.01c.886,0,1.771.037,2.649.112,1.685.144,2.6,1.33,2.643,3.175.062,2.544.023,5.09.026,7.635a.712.712,0,0,1-.052.174c-5.907,0-15.6.008-17.75-.007-2.032-.014-3.307-1.083-3.5-2.863,0-.03,0-.062-.007-.092l0-.033c.055-.958.062-1.921.06-2.88a22.044,22.044,0,0,0-.2-3.724c-.536-3.06-2.331-4.741-5.507-5.1a28.017,28.017,0,0,0-7.165.049,5.729,5.729,0,0,0-5.229,5.324,28.263,28.263,0,0,0-.159,3.373c-.013,1.957-.013,3.914-.01,5.871H56.159c.006-5.7.006-12.442.009-16.862v-.472H52.483c0,1.952,0,8.293,0,10.206,0,4.377.009,8.754-.007,13.131a2.965,2.965,0,0,1-2.9,3.207c-2.217.118-4.447.143-6.667.061a2.926,2.926,0,0,1-3.119-2.73,6.1,6.1,0,0,1-.065-.92c-.01-.609,0-4.99,0-5.621H36c.055,1.265.016,6.257.178,7.45.423,3.123,2.131,4.99,5.227,5.39a40.886,40.886,0,0,0,9.372.015,5.422,5.422,0,0,0,4.3-2.652A8.283,8.283,0,0,0,56.15,79.89c0-.644,0-1.338,0-2.071H77.475c2.61,0,5.219,0,7.829-.012a7.152,7.152,0,0,0,4.511-1.425c.142-.111.274-.227.4-.347l.069.065c.114.1.234.2.361.3a6.611,6.611,0,0,0,1.452.835,7.479,7.479,0,0,0,2.817.548c2.948.032,17.52.018,22.057.016.011-.188.026-.333.026-.478q0-1.615,0-3.229C117,72.108,117,70.126,116.99,68.142ZM88.413,70.559c0,.083-.008.165-.013.248-.007.122-.017.241-.03.356-.227,2-1.428,2.941-3.565,2.947q-2.205.006-4.411.007H77.545a.922.922,0,0,1-.06-.2c0-2.545-.036-5.091.025-7.635.045-1.845.957-3.03,2.644-3.175a33.217,33.217,0,0,1,5.624.011A2.687,2.687,0,0,1,88.348,65.9,43.6,43.6,0,0,1,88.413,70.559Z" fill="#5ab458"/>
          <rect id="Rectangle_1" data-name="Rectangle 1" width="3.81" height="3.807" transform="translate(102.644 80.389)" fill="#5ab458"/>
        </g>
        <g id="Group_26" data-name="Group 26">
          <path id="Path_142" data-name="Path 142" d="M20.947,0a4.958,4.958,0,0,1,2.375.623,4.432,4.432,0,0,1,1.8,1.784,4.843,4.843,0,0,1,.01,4.818A4.487,4.487,0,0,1,23.35,9.013a4.857,4.857,0,0,1-4.807,0,4.505,4.505,0,0,1-1.789-1.787,4.823,4.823,0,0,1,.01-4.818A4.454,4.454,0,0,1,18.572.623,4.957,4.957,0,0,1,20.947,0Zm0,.8a4.115,4.115,0,0,0-1.981.521,3.741,3.741,0,0,0-1.507,1.49,4.006,4.006,0,0,0-.01,4.016,3.785,3.785,0,0,0,1.494,1.49,4.025,4.025,0,0,0,4.006,0,3.765,3.765,0,0,0,1.491-1.49,4.028,4.028,0,0,0-.01-4.016,3.716,3.716,0,0,0-1.507-1.49A4.121,4.121,0,0,0,20.947.8ZM18.828,7.494V2.3h1.786a4.37,4.37,0,0,1,1.325.144,1.284,1.284,0,0,1,.653.5,1.331,1.331,0,0,1,.243.761,1.384,1.384,0,0,1-.406.991,1.608,1.608,0,0,1-1.079.473,1.434,1.434,0,0,1,.442.275,5.986,5.986,0,0,1,.768,1.03l.633,1.017H22.169l-.461-.819a4.2,4.2,0,0,0-.877-1.209,1.081,1.081,0,0,0-.672-.179h-.493V7.494Zm.838-2.922h1.018a1.642,1.642,0,0,0,1-.217.746.746,0,0,0,.138-.988.765.765,0,0,0-.355-.272,2.638,2.638,0,0,0-.842-.09h-.954Z" fill="#5ab458"/>
        </g>
      </g>
    </g>
    <path id="Color_Overlay" data-name="Color Overlay" d="M1659.295,3962.853c-3.1-.4-4.8-2.267-5.228-5.39-.161-1.193-.122-6.185-.177-7.45h3.717c0,.632-.007,5.012,0,5.622a5.91,5.91,0,0,0,.065.92,2.925,2.925,0,0,0,3.119,2.729c2.22.083,4.449.057,6.667-.061a2.965,2.965,0,0,0,2.9-3.208c.016-4.377.006-8.754.007-13.131v-10.206h3.686v.471c0,4.42,0,11.162-.009,16.863H1691.7c0-1.958,0-3.914.01-5.871a28.49,28.49,0,0,1,.159-3.374,5.73,5.73,0,0,1,5.23-5.324,28,28,0,0,1,7.165-.05c3.176.359,4.971,2.04,5.507,5.1a22.133,22.133,0,0,1,.2,3.725c0,.959,0,1.922-.059,2.879l0,.034c0,.03,0,.061.006.092.189,1.779,1.464,2.848,3.5,2.862,2.145.016,11.844.01,17.751.008a.728.728,0,0,0,.052-.175c0-2.544.036-5.092-.025-7.635-.046-1.846-.958-3.031-2.644-3.175-.877-.075-1.762-.111-2.65-.112h-10.93v-3.807h10.93a25.417,25.417,0,0,1,3.592.255,5.729,5.729,0,0,1,5.23,5.324,28.284,28.284,0,0,1,.159,3.374c.014,1.983.013,3.966.011,5.949q0,1.613-.005,3.229c0,.144-.015.289-.026.477-4.536,0-19.109.016-22.057-.016a7.471,7.471,0,0,1-2.819-.548,6.634,6.634,0,0,1-1.45-.835,4.633,4.633,0,0,1-.361-.3c-.025-.021-.046-.044-.07-.066a4.827,4.827,0,0,1-.4.348,7.148,7.148,0,0,1-4.511,1.425c-2.609.014-5.219.013-7.828.012h-21.322c0,.732,0,1.426,0,2.071a8.294,8.294,0,0,1-1.074,4.325,5.416,5.416,0,0,1-4.295,2.652,47.846,47.846,0,0,1-4.86.262A35.252,35.252,0,0,1,1659.295,3962.853Zm38.744-23.743c-1.687.144-2.6,1.329-2.644,3.175-.061,2.543-.023,5.091-.025,7.635a.964.964,0,0,0,.06.2h2.85q2.208,0,4.411-.007c2.137-.006,3.338-.944,3.565-2.947.014-.115.024-.235.03-.356.005-.083.009-.166.013-.249a43.626,43.626,0,0,0-.065-4.663,2.687,2.687,0,0,0-2.571-2.777c-.967-.082-1.941-.123-2.916-.123C1699.84,3939,1698.935,3939.033,1698.039,3939.109Zm22.49,21.086v-3.806h3.81v3.806Zm-80.6-6.93a4.118,4.118,0,0,1-2.76-3.04c-.6-2.506-1.289-4.991-1.938-7.486q-.619-2.373-1.233-4.748v-1.642a6.9,6.9,0,0,1,1.76-2.474,7.11,7.11,0,0,0,2.225-4.874c.094-1.838.022-3.687-.027-5.529a30.226,30.226,0,0,1,1.214-10.278,95.345,95.345,0,0,1,6.456-14.82,10.13,10.13,0,0,1,8.506-5.4,6.372,6.372,0,0,1,4.654,1.688c1.065.857,1.727.736,2.518-.385.374-.53.705-1.091,1.081-1.62a2.584,2.584,0,0,1,2.527-1.151,12.46,12.46,0,0,1,5.542,1.841,14.1,14.1,0,0,1,4.792,5.579c1.937,3.747,3.811,7.524,5.686,11.3a7.859,7.859,0,0,0,4.112,3.823,4.929,4.929,0,0,0,3.789.3,6.7,6.7,0,0,0,3.615-3.395,11.757,11.757,0,0,0,.824-8.436c-.559-2.264-1.366-4.467-2.088-6.689a11.286,11.286,0,0,1-.89-3.713c.046-2.082.923-3.523,2.614-4.048a29.075,29.075,0,0,0,5.892-2.18,1.809,1.809,0,0,1,2.307.339c.572.572.743.515,1.226-.153.06-.083.1-.217.179-.243.293-.1.6-.16.9-.236a3.219,3.219,0,0,1-.034.811,1.48,1.48,0,0,1-.407.58c-.446.44-.914.859-1.4,1.315-.235-.19-.469-.359-.678-.557a1.949,1.949,0,0,0-2.109-.33,2.915,2.915,0,0,0-.725.376,8.15,8.15,0,0,1-2.771,1.166c-.864.206-1.732.4-2.593.621a1.4,1.4,0,0,0-1.231,1.42,8.56,8.56,0,0,0,.614,3.864c.727,1.968,1.563,3.9,2.235,5.884a14.177,14.177,0,0,1,.408,9.057,8.143,8.143,0,0,1-3.432,4.82,7.791,7.791,0,0,1-6.873.515,8.475,8.475,0,0,1-4.594-4.2c-1.406-2.595-2.69-5.258-4-7.9a36.139,36.139,0,0,0-3.245-5.918,10.721,10.721,0,0,0-6.9-4.431c-1.667-.282-2.327.04-3.149,1.516-.216.388-.417.786-.661,1.156a1.939,1.939,0,0,1-2.522.873,11.959,11.959,0,0,1-1.665-.784,7.819,7.819,0,0,0-10.532,2.679,23.468,23.468,0,0,0-1.53,2.951c-1.394,3.056-2.414,6.281-4.134,9.193a11.427,11.427,0,0,0-.625,1.289,29,29,0,0,0-1.8,15.085,10,10,0,0,1-2.659,8.4,3.513,3.513,0,0,0-1.066,3.229c.7,3.287,1.393,6.576,2.181,9.843a6.481,6.481,0,0,0,2.215,3.67,2.426,2.426,0,0,0,1.277.559,27.193,27.193,0,0,0,3.114-.139c.121-.009.268-.24.319-.395a.448.448,0,0,0-.153-.367q-.656-.534-1.349-1.022c-1.062-.746-2.142-1.469-3.2-2.22a2.551,2.551,0,0,1-1.165-1.627,17.6,17.6,0,0,1,.417-8.564,28.884,28.884,0,0,1,2.937-6.021,61.753,61.753,0,0,0,5.484-11.033,27.873,27.873,0,0,1,2.481-5.33c2.2-3.533,5.3-5.294,9.5-4.88,2.143.212,4.276.52,6.409.817a7.962,7.962,0,0,0,5.469-.761,2.109,2.109,0,0,1,.677-.223,5.807,5.807,0,0,1,3.889.8,9.538,9.538,0,0,1,4.944,9.661c-.361,3.639-.707,7.282-1.067,10.92-.594,6.021-.69,6.959-1.309,12.978a20.441,20.441,0,0,1-.508,2.5c-.106.462-.423.567-.858.375,0-.362-.03-.721.005-1.074.3-3.215.155-1.345.435-4.562.323-3.747.577-7.5.892-11.245.27-3.184.612-6.363.864-9.547a13.582,13.582,0,0,0-.042-3.309,9.8,9.8,0,0,0-2.991-5.151,4.315,4.315,0,0,0-1.686-1.009,4.81,4.81,0,0,0-4,.531c1.276.6,2.493,1.18,3.712,1.749a7.346,7.346,0,0,1,4.3,5.681,5.045,5.045,0,0,1-4.067,5.588,5.775,5.775,0,0,1-6.237-4.493c-.341-1.738-.453-3.52-.639-5.285-.105-1-.153-2-.228-3.013-.145-.022-.244-.041-.344-.05-2.163-.192-4.327-.4-6.492-.566-.938-.073-1.882-.085-2.822-.094a6.038,6.038,0,0,0-5.52,2.915c-1.919,2.981-3.515,6.133-5.125,9.28-1.913,3.739-3.695,7.55-5.757,11.205a16.006,16.006,0,0,0-2.074,9.538,3.983,3.983,0,0,0,2.323,3.473c.549.278,1.124.509,1.653.82a9.724,9.724,0,0,1,1.818,1.219c1.214,1.147.91,2.486-.643,3.076a5.011,5.011,0,0,1-1.8.329A7.471,7.471,0,0,1,1639.932,3953.265Zm29.877-31.542a4.372,4.372,0,0,0,5.25,2.123,2.176,2.176,0,0,0,1.327-1.124,5.607,5.607,0,0,0,.453-4.5,4.03,4.03,0,0,0-2.085-2.425c-1.686-.817-3.42-1.536-5.192-2.32A9.225,9.225,0,0,0,1669.809,3921.722Zm-33.379-36.709a4.51,4.51,0,0,1-1.789-1.787,4.82,4.82,0,0,1,.009-4.818,4.445,4.445,0,0,1,1.809-1.784,4.832,4.832,0,0,1,4.748,0,4.429,4.429,0,0,1,1.805,1.784,4.841,4.841,0,0,1,.009,4.818,4.488,4.488,0,0,1-1.785,1.787,4.861,4.861,0,0,1-4.806,0Zm.422-7.692a3.736,3.736,0,0,0-1.508,1.49,4,4,0,0,0-.009,4.015,3.785,3.785,0,0,0,1.494,1.49,4.025,4.025,0,0,0,4.007,0,3.764,3.764,0,0,0,1.491-1.49,4.027,4.027,0,0,0-.01-4.015,3.7,3.7,0,0,0-1.507-1.49,4.019,4.019,0,0,0-3.959,0Zm66.049,7.355a1.737,1.737,0,0,0-1.669-.976,9.514,9.514,0,0,1-1.021-.093c-2.077-.249-4.149-.458-5.669-2.2a2.184,2.184,0,0,0-2.182-.6c-.469.1-.932.224-1.4.3-.15.023-.41-.035-.469-.139-.433-.763-1.242-1.287-1.405-2.22-.018-.1-.125-.188-.229-.335a2,2,0,0,0-.6,1.745,14.484,14.484,0,0,1,.242,2.288,1.545,1.545,0,0,0,1.05,1.542l1.54-1.651.151.114c-.15.357-.273.727-.457,1.066-.348.646-.777,1.306-1.612,1.2-.812-.1-1.083-.825-1.241-1.523a11.7,11.7,0,0,1-.04-4.633,10.258,10.258,0,0,1,.747-1.931h.1c.246.4.463.825.742,1.2.43.578.9,1.123,1.409,1.748-.041.009.058-.012.157-.031a17.892,17.892,0,0,1,2.005-.387,2.858,2.858,0,0,1,2.224,1.2,3.821,3.821,0,0,0,1.991,1.087c.535.109,1.074.2,1.607.319,1.164.263,2.339.489,3.479.828a1.782,1.782,0,0,1,1.255,1.9,2,2,0,0,1-.269.518C1703.192,3884.9,1702.977,3884.825,1702.9,3884.676Zm-62.847-1.182-.461-.818a4.2,4.2,0,0,0-.876-1.21,1.088,1.088,0,0,0-.672-.178h-.492v2.206h-.839V3878.3h1.785a4.341,4.341,0,0,1,1.325.144,1.279,1.279,0,0,1,.654.5,1.328,1.328,0,0,1,.243.761,1.388,1.388,0,0,1-.406.991,1.6,1.6,0,0,1-1.079.473,1.44,1.44,0,0,1,.442.275,6.019,6.019,0,0,1,.768,1.029l.634,1.018Zm-2.5-2.922h1.016a1.643,1.643,0,0,0,1-.218.706.706,0,0,0,.266-.575.7.7,0,0,0-.127-.413.765.765,0,0,0-.355-.271,2.632,2.632,0,0,0-.842-.091h-.954Z" fill="#c1c1c1"/>
  </g>
</svg>
