<svg xmlns="http://www.w3.org/2000/svg" width="93.001" height="36.001" viewBox="0 0 93.001 36.001">
  <g id="Vector_Smart_Object_copy_3" data-name="Vector Smart Object copy 3" transform="translate(-1642 -2603)">
    <g id="Vector_Smart_Object_copy_3-2" data-name="Vector Smart Object copy 3" transform="translate(1637.541 2546.021)">
      <g id="Group_18" data-name="Group 18">
        <g id="Group_17" data-name="Group 17">
          <path id="Path_135" data-name="Path 135" d="M13.814,69.784,9.49,71.916l1.483,2.975a11.334,11.334,0,0,1,1.152,3.039q0,.939-2.572.939l-1.342-.032-.773-.063v5.313h4.088a5.031,5.031,0,0,0,3.5-1.209,4.822,4.822,0,0,0,1.539.9,5.381,5.381,0,0,0,1.839.31h.08V78.857c-.649-1.112-.3-.441-.679-1.134ZM27.8,86.648a2.067,2.067,0,0,0-1.42.589,2.028,2.028,0,0,0-.616,1.48A2.071,2.071,0,0,0,27.8,90.768a1.939,1.939,0,0,0,1.4-.613,1.966,1.966,0,0,0,.616-1.44,2.017,2.017,0,0,0-.584-1.48A1.944,1.944,0,0,0,27.8,86.648Zm-5.255-.127a1.927,1.927,0,0,0-1.4.62,2.03,2.03,0,0,0-.616,1.48,2.005,2.005,0,0,0,.608,1.416,1.9,1.9,0,0,0,1.412.637,2.246,2.246,0,0,0,1.452-.621,1.965,1.965,0,0,0,.6-1.432,2.046,2.046,0,0,0-.6-1.488A1.958,1.958,0,0,0,22.542,86.52Zm15.025-18.8a2.089,2.089,0,0,0,1.507-.645,2.028,2.028,0,0,0,.655-1.488,2.121,2.121,0,0,0-.679-1.527,2,2,0,0,0-3.014,0,2.009,2.009,0,0,0-.663,1.527,2.059,2.059,0,0,0,.663,1.512A2.212,2.212,0,0,0,37.566,67.716Zm.063,1.607a6.373,6.373,0,0,0-6.234,6.3,6.848,6.848,0,0,0,.789,3.15h-1.42a6.841,6.841,0,0,1-2.746-.35q-.648-.35-.647-1.607l.111-1.973.095-3.039h-4.8q0,.446.063,1.5t.064,1.639L23,76.911q0,1.226-.655,1.543a7.48,7.48,0,0,1-2.88.4v5.229h2.431a4.766,4.766,0,0,0,3.314-1.209A4.7,4.7,0,0,0,28.6,84.086h4.956a13.094,13.094,0,0,0,7.567-2.068,7.21,7.21,0,0,0,3.022-6.4A5.92,5.92,0,0,0,42.2,71.176,6.419,6.419,0,0,0,37.629,69.322Zm1.531,8.114a2.009,2.009,0,0,1-1.389.525,1.9,1.9,0,0,1-1.381-.549,1.83,1.83,0,0,1-.56-1.361,2.011,2.011,0,0,1,.584-1.384,1.9,1.9,0,0,1,1.357-.556,1.869,1.869,0,0,1,1.909,1.941A2.022,2.022,0,0,1,39.16,77.436ZM75.282,73.57a6.5,6.5,0,0,0-4.119,1.368l-2.367,2.5a3.505,3.505,0,0,1-2.588,1.336h-.174a9.71,9.71,0,0,0-1.673-5.664,5.527,5.527,0,0,0-4.845-2.418A6.736,6.736,0,0,0,52.84,77.4a6.315,6.315,0,0,0,2,4.741,6.721,6.721,0,0,0,4.83,1.925,20.161,20.161,0,0,1-3.456,2.5l-3.741,2.291,2.573,4.121,4.024-2.371a21.533,21.533,0,0,0,3.851-2.863,10.471,10.471,0,0,0,2.446-3.66h1.342v-.031a3.76,3.76,0,0,0,1.8-.621,5.426,5.426,0,0,0,2.123,3.118,10.843,10.843,0,0,0,2.493,1.3A7.3,7.3,0,1,0,75.282,73.57ZM61.33,78.932H59.278a1.8,1.8,0,0,1-1.349-.588,1.888,1.888,0,0,1-.56-1.336,1.98,1.98,0,0,1,1.909-1.893,1.885,1.885,0,0,1,1.657,1.05,4.148,4.148,0,0,1,.387.962,4.276,4.276,0,0,1,.118,1.042A3.408,3.408,0,0,1,61.33,78.932ZM76.757,82.32a1.965,1.965,0,0,1-1.476.636,2.275,2.275,0,0,1-1.5-.588,2.117,2.117,0,0,1,.024-3.039,2.12,2.12,0,0,1,1.475-.6,1.994,1.994,0,0,1,1.484.613,2.087,2.087,0,0,1,.6,1.519A2.058,2.058,0,0,1,76.757,82.32ZM45.453,78.9h6.106V75.073H45.453ZM9.9,68.375a2.964,2.964,0,0,0-.007-2.94,2.719,2.719,0,0,0-1.083-1.083,2.927,2.927,0,0,0-2.877,0,2.715,2.715,0,0,0-1.083,1.083,2.964,2.964,0,0,0-.007,2.94,2.756,2.756,0,0,0,1.076,1.085,2.9,2.9,0,0,0,2.9,0A2.757,2.757,0,0,0,9.9,68.375Zm-2.525.9a2.326,2.326,0,0,1-1.164-.314,2.221,2.221,0,0,1-.866-.874,2.385,2.385,0,0,1,.008-2.366,2.189,2.189,0,0,1,.87-.871,2.347,2.347,0,0,1,2.308,0,2.191,2.191,0,0,1,.872.871,2.381,2.381,0,0,1,.006,2.366,2.239,2.239,0,0,1-.866.874A2.325,2.325,0,0,1,7.378,69.278Zm.78-1.8a1.56,1.56,0,0,0-.209-.24.779.779,0,0,0-.217-.117.993.993,0,0,0,.615-.3.827.827,0,0,0,.218-.577.877.877,0,0,0-.116-.446.78.78,0,0,0-.289-.3,1.212,1.212,0,0,0-.485-.125q-.106-.008-.989-.008H6.057v3.118h.628V67.2h.164a.688.688,0,0,1,.433.133,2.1,2.1,0,0,1,.434.642l.259.506h.776l-.365-.629C8.257,67.633,8.181,67.506,8.158,67.476Zm-.542-.805a3.08,3.08,0,0,1-.675.042H6.685v-.852H6.94a2.987,2.987,0,0,1,.674.044.407.407,0,0,1,.211.145.384.384,0,0,1,.074.232.4.4,0,0,1-.284.387Zm89.835,5.81a17.365,17.365,0,0,0-17.194-15.5,17.1,17.1,0,0,0-8.711,2.374,1.255,1.255,0,0,0-.448,1.709,1.231,1.231,0,0,0,1.694.451,14.652,14.652,0,0,1,7.465-2.032A14.878,14.878,0,0,1,94.988,72.759a1.239,1.239,0,1,0,2.463-.279Zm-17.194-5.2a7.034,7.034,0,0,0-3.157.747,1.259,1.259,0,0,0-.56,1.678,1.236,1.236,0,0,0,1.661.565,4.541,4.541,0,0,1,2.056-.487A4.638,4.638,0,0,1,84.834,73.8a1.24,1.24,0,1,0,2.456-.344A7.123,7.123,0,0,0,80.257,67.282Z" fill="#212a4b"/>
        </g>
      </g>
    </g>
    <path id="Color_Overlay" data-name="Color Overlay" d="M1690.017,2634.88l3.74-2.291a20.236,20.236,0,0,0,3.457-2.5,6.721,6.721,0,0,1-4.83-1.925,6.315,6.315,0,0,1-2-4.74,6.736,6.736,0,0,1,6.675-6.714,5.527,5.527,0,0,1,4.846,2.418,9.708,9.708,0,0,1,1.672,5.664h.174a3.508,3.508,0,0,0,2.589-1.337l2.368-2.5a6.493,6.493,0,0,1,4.118-1.368,6.974,6.974,0,0,1,5.161,2.139,7.3,7.3,0,0,1-7.315,12.139,10.856,10.856,0,0,1-2.493-1.3,5.42,5.42,0,0,1-2.122-3.118,3.762,3.762,0,0,1-1.8.621v.031h-1.342a10.465,10.465,0,0,1-2.446,3.659,21.6,21.6,0,0,1-3.851,2.863L1692.59,2639Zm21.33-9.53a2.117,2.117,0,0,0-.024,3.039,2.278,2.278,0,0,0,1.5.589,1.966,1.966,0,0,0,1.476-.636,2.058,2.058,0,0,0,.607-1.463,2.084,2.084,0,0,0-.6-1.519,2,2,0,0,0-1.484-.613A2.121,2.121,0,0,0,1711.347,2625.35Zm-15.861-3.634a1.814,1.814,0,0,0-.576,1.311,1.889,1.889,0,0,0,.56,1.337,1.8,1.8,0,0,0,1.349.589h2.052a3.4,3.4,0,0,0,.11-.764,4.239,4.239,0,0,0-.118-1.041,4.164,4.164,0,0,0-.386-.963,1.885,1.885,0,0,0-1.658-1.05A1.822,1.822,0,0,0,1695.487,2621.715Zm-31.577,14.469a1.969,1.969,0,0,1-.608-1.448,2.025,2.025,0,0,1,.616-1.479,2.066,2.066,0,0,1,1.42-.589,1.945,1.945,0,0,1,1.436.589,2.014,2.014,0,0,1,.583,1.479,1.966,1.966,0,0,1-.616,1.44,1.936,1.936,0,0,1-1.4.613A1.961,1.961,0,0,1,1663.91,2636.185Zm-5.24-.129a2,2,0,0,1-.607-1.415,2.029,2.029,0,0,1,.616-1.479,1.925,1.925,0,0,1,1.4-.62,1.957,1.957,0,0,1,1.452.612,2.045,2.045,0,0,1,.6,1.488,1.962,1.962,0,0,1-.6,1.432,2.244,2.244,0,0,1-1.452.62A1.9,1.9,0,0,1,1658.67,2636.056Zm7.473-5.949a4.7,4.7,0,0,1-3.393-1.209,4.768,4.768,0,0,1-3.314,1.209h-2.431v-5.229a7.472,7.472,0,0,0,2.88-.4q.655-.318.655-1.543l-.094-1.973q0-.589-.064-1.639t-.063-1.495h4.8l-.1,3.038-.111,1.973q0,1.257.647,1.607a6.849,6.849,0,0,0,2.747.35h1.42a6.843,6.843,0,0,1-.789-3.15,6.372,6.372,0,0,1,6.233-6.3,6.419,6.419,0,0,1,4.569,1.854,5.917,5.917,0,0,1,1.949,4.446,7.211,7.211,0,0,1-3.023,6.4,13.1,13.1,0,0,1-7.567,2.068Zm7.812-9.419a2.017,2.017,0,0,0-.583,1.385,1.829,1.829,0,0,0,.56,1.361,1.9,1.9,0,0,0,1.381.549,1.8,1.8,0,0,0,1.91-1.91,1.87,1.87,0,0,0-1.91-1.94A1.909,1.909,0,0,0,1673.955,2620.688Zm-18.007,9.419a5.373,5.373,0,0,1-1.839-.311,4.8,4.8,0,0,1-1.539-.9,5.03,5.03,0,0,1-3.5,1.209h-4.088v-5.313l.773.064,1.342.031q2.572,0,2.572-.939a11.348,11.348,0,0,0-1.152-3.038l-1.483-2.975,4.324-2.131,3.993,7.938c.379.693.03.022.679,1.135v5.229Zm27.047-5.189v-3.823h6.106v3.823Zm39.38-5.094a4.638,4.638,0,0,0-4.577-4.018,4.536,4.536,0,0,0-2.057.488,1.236,1.236,0,0,1-1.66-.565,1.26,1.26,0,0,1,.56-1.679,7.04,7.04,0,0,1,3.157-.746,7.121,7.121,0,0,1,7.033,6.177,1.251,1.251,0,0,1-1.056,1.413,1.372,1.372,0,0,1-.17.012A1.247,1.247,0,0,1,1722.375,2619.823Zm10.154-1.044A14.878,14.878,0,0,0,1717.8,2605.5a14.651,14.651,0,0,0-7.465,2.031,1.231,1.231,0,0,1-1.695-.451,1.255,1.255,0,0,1,.448-1.709A17.1,17.1,0,0,1,1717.8,2603a17.366,17.366,0,0,1,17.194,15.5,1.239,1.239,0,0,1-1.09,1.38,1.08,1.08,0,0,1-.142.009A1.243,1.243,0,0,1,1732.529,2618.78Zm-89.066-3.3a2.744,2.744,0,0,1-1.076-1.085,2.963,2.963,0,0,1,.007-2.94,2.709,2.709,0,0,1,1.083-1.083,2.925,2.925,0,0,1,2.876,0,2.716,2.716,0,0,1,1.084,1.083,2.968,2.968,0,0,1,.007,2.94,2.751,2.751,0,0,1-1.077,1.085,2.9,2.9,0,0,1-2.9,0Zm.3-4.608a2.184,2.184,0,0,0-.87.87,2.387,2.387,0,0,0-.007,2.367,2.222,2.222,0,0,0,.866.874,2.314,2.314,0,0,0,2.331,0,2.252,2.252,0,0,0,.866-.874,2.384,2.384,0,0,0-.006-2.367,2.186,2.186,0,0,0-.871-.87,2.347,2.347,0,0,0-2.308,0Zm1.75,3.632-.259-.506a2.134,2.134,0,0,0-.435-.644.691.691,0,0,0-.433-.131h-.164v1.281h-.628v-3.118h.628c.589,0,.919,0,.989.007a1.23,1.23,0,0,1,.485.124.782.782,0,0,1,.29.3.88.88,0,0,1,.115.446.825.825,0,0,1-.218.577.99.99,0,0,1-.615.3.812.812,0,0,1,.217.116,1.521,1.521,0,0,1,.209.239c.023.031.1.157.229.381l.365.628Zm-1.291-1.772h.255a3.2,3.2,0,0,0,.676-.041.4.4,0,0,0,.283-.387.385.385,0,0,0-.075-.233.4.4,0,0,0-.211-.145,2.958,2.958,0,0,0-.674-.045h-.255Zm29.35.384a2.058,2.058,0,0,1-.662-1.511,2.007,2.007,0,0,1,.662-1.527,2,2,0,0,1,3.014,0,2.121,2.121,0,0,1,.679,1.527,2.028,2.028,0,0,1-.654,1.488,2.09,2.09,0,0,1-1.507.644A2.211,2.211,0,0,1,1673.576,2613.116Z" fill="#c1c1c1"/>
  </g>
</svg>
