<svg xmlns="http://www.w3.org/2000/svg" width="108.625" height="37.187" viewBox="0 0 108.625 37.187">
  <path id="Shape_144_copy_3" data-name="Shape 144 copy 3" d="M265.829,2640v-6.129h3.217a4.662,4.662,0,0,0,0-9.324h-4.5V2640h-5.78v-20.8h9.845a10.4,10.4,0,1,1,0,20.8Zm-16.669,0V2624.56h5.35V2640Zm-10.857,0v-13.7a8.762,8.762,0,0,1,8.259-8.749v5.583a3.19,3.19,0,0,0-2.7,3.165v1.256h2.7v6.11h-2.7V2640Zm-25.652-7.9a7.9,7.9,0,1,1,7.9,7.9A7.9,7.9,0,0,1,212.651,2632.1Zm5.163,0a2.738,2.738,0,1,0,2.737-2.739A2.735,2.735,0,0,0,217.814,2632.1Zm-13.3,7.9v-15.649a1.332,1.332,0,1,0-2.665,0V2640h-5.279v-15.649a1.335,1.335,0,1,0-2.669,0V2640h-5.577v-15.791a5.994,5.994,0,0,1,10.887-3.466,5.991,5.991,0,0,1,10.884,3.466V2640Zm25.362-7.34v-3.83h6.92v3.83Zm19.27-12.361a2.68,2.68,0,1,1,2.68,2.68A2.68,2.68,0,0,1,249.15,2620.3Zm28.785.78a2.71,2.71,0,0,1-1.065-1.065,2.889,2.889,0,0,1,.007-2.883,2.683,2.683,0,0,1,1.07-1.063,2.918,2.918,0,0,1,2.844,0,2.691,2.691,0,0,1,1.071,1.063,2.892,2.892,0,0,1,.006,2.883,2.716,2.716,0,0,1-1.065,1.065,2.887,2.887,0,0,1-2.869,0Zm.3-4.519a2.141,2.141,0,0,0-.86.853,2.327,2.327,0,0,0-.008,2.321,2.213,2.213,0,0,0,.857.858,2.311,2.311,0,0,0,2.3,0,2.226,2.226,0,0,0,.855-.858,2.316,2.316,0,0,0-.006-2.321,2.135,2.135,0,0,0-.86-.853,2.332,2.332,0,0,0-2.281,0Zm1.731,3.562-.257-.5a2.041,2.041,0,0,0-.428-.629.68.68,0,0,0-.429-.131h-.162v1.257h-.62v-3.057h.62c.581,0,.908,0,.979.008a1.169,1.169,0,0,1,.478.121.755.755,0,0,1,.287.294.854.854,0,0,1,.114.438.806.806,0,0,1-.216.566.971.971,0,0,1-.607.291.765.765,0,0,1,.213.116,1.5,1.5,0,0,1,.207.235c.022.03.1.154.226.373l.362.617Zm-1.277-1.737h.253a3.051,3.051,0,0,0,.669-.042.392.392,0,0,0,.279-.38.375.375,0,0,0-.074-.228.4.4,0,0,0-.208-.143,3.117,3.117,0,0,0-.666-.042h-.253Zm-94.579.981a1.161,1.161,0,0,1-.986-1.307,6.635,6.635,0,0,1,9.518-5.025,1.158,1.158,0,1,1-1.029,2.074,4.319,4.319,0,0,0-6.195,3.268,1.158,1.158,0,0,1-1.308.989Zm-9.457-.936a1.15,1.15,0,0,1-1.019-1.278,16.164,16.164,0,0,1,24.194-12.144,1.157,1.157,0,1,1-1.164,2,13.85,13.85,0,0,0-20.731,10.4,1.156,1.156,0,0,1-1.147,1.027A1.176,1.176,0,0,1,174.651,2618.429Z" transform="translate(-173.625 -2602.813)" fill="#c1c1c1"/>
</svg>
